<?xml version="1.0" encoding="utf-8"?>
<!-- Generator: Adobe Illustrator 22.0.0, SVG Export Plug-In . SVG Version: 6.00 Build 0)  -->
<svg version="1.1" id="Layer_1" xmlns="http://www.w3.org/2000/svg" xmlns:xlink="http://www.w3.org/1999/xlink" x="0px" y="0px"
	 viewBox="0 0 1149.9 251.9" style="enable-background:new 0 0 1149.9 251.9;" xml:space="preserve">
<style type="text/css">
	.st0{fill:#FFFFFF;}
</style>
<path class="st0" d="M755.8,10.9c3.1,0.6,6.1,1.7,9.2,1.8c4.1,0.2,5.2,1.9,5.2,5.9c-0.2,20.5-0.2,41,0,61.4c0.1,8.9,0.7,17.9,1.1,27
	c-7.1,1.9-13.5,1-15.9-2.5c-15.3,10-38.2,4.3-41.9-21c-1.4-9.6-0.7-18.9,3.5-27.8c6.5-13.6,20.1-18.9,34.2-13.6
	c0.4,0.2,0.9,0.2,1.6,0.3c0-10.6,0-21.1,0-31.5C753.8,10.9,754.8,10.9,755.8,10.9z M753.1,74.5c0-3.8-0.4-7.7,0.1-11.5
	c0.6-5.2-2.5-7.2-6.6-8.4c-4.5-1.4-8.8-0.6-10.8,3.7c-4.8,10.2-4.8,21-0.8,31.5c1.6,4.2,7.2,5.6,12.2,4.2c4.4-1.3,6.5-4,6-8.9
	C752.7,81.5,753.1,78,753.1,74.5z"/>
<path class="st0" d="M889.8,10.9c2.9,0.6,5.8,1.8,8.7,1.8c4.9,0,5.5,2.5,5.4,6.6c-0.2,18.3-0.2,36.6,0,54.9
	c0.1,10.9,0.8,21.8,1.2,33.3c-5-1-11,2.7-15.1-1.8c-6.4,1.1-12.4,3.1-18.4,3c-11-0.2-18.2-6.8-21.9-16.8
	c-4.3-11.3-4.2-22.9,0.3-34.1c6.1-15.4,20.6-21.4,36.9-15.1c0-10.8,0-21.3,0-31.8C887.8,10.9,888.8,10.9,889.8,10.9z M886.9,74.3
	c0-3.7-0.4-7.4,0.1-11c0.7-5.4-2.2-7.6-6.6-8.8c-4.5-1.3-8.7-0.4-10.8,3.9c-4.8,10.3-4.8,21-0.7,31.4c1.6,4.1,7.4,5.5,12.3,4
	c4.1-1.3,6.3-3.8,5.8-8.5C886.5,81.7,886.9,78,886.9,74.3z"/>
<path class="st0" d="M1143.8,214.9c-3.1,3.2-6.1,6.5-9.7,10.3c-3.1-2.4-6.1-4.8-9.5-7.4c-6.7,6.4-15.3,7.4-24.2,5.5
	c-9.5-2-14.7-7.9-15.5-17.1c-1-11.3,3-19.4,12.2-22.7c5.4-1.9,11.3-2.4,17-3.3c1.9-0.3,3.9,0,5.8,0c2.3-10-1.8-14.4-11.3-11.9
	c-5.2,1.4-10.1,4.1-15.4,6.4c-2.2-3.7-4.6-7.6-7.1-12c12.2-7.2,24.4-11.7,38.3-8.3c8.8,2.2,13.3,7.8,13.4,16.9
	c0.2,9.3,0,18.6-0.2,28c-0.1,5.9,0.4,11.4,6.2,14.7C1143.8,214.2,1143.8,214.6,1143.8,214.9z M1120.4,200.3c0-1.8,0.2-3.7-0.1-5.5
	c-0.1-0.9-1.3-2.4-1.8-2.4c-4.2,0.7-8.6,1.1-12.3,2.9c-3.4,1.6-3.7,8.7-1.4,12.3c2.3,3.5,6.2,4.2,10.6,2.5
	C1120.2,208.2,1120.4,204.4,1120.4,200.3z"/>
<path class="st0" d="M673.8,242.9c-2.6-3-5.2-6-7.9-9.3c5.4-4.4,10.9-8.6,11.7-16c0.4-3.8,0.5-7.6,0.5-11.5c0-23.1,0-46.3,0-69.4
	c0-1.8,0-3.6,0-5.6c6.4,0,12.1,0,18.2,0c0.1,1,0.4,2.1,0.4,3.2c0,25.5-0.2,50.9,0,76.4c0.1,14.6-6.5,24.7-19.4,31
	c-0.6,0.3-1,0.8-1.5,1.2C675.1,242.9,674.5,242.9,673.8,242.9z"/>
<path class="st0" d="M85.3,134c12.3,0.4,26.7,4.6,40.7,9.8c18.7,6.9,37.2,14.4,55.9,21.5c4.8,1.8,9.8,3.3,14.7,4.7
	c11,3.1,20.3,0,27.1-8.8c4.1-5.3,7.2-11.5,10.5-17.5c2.7-5,5.6-6.9,9.8-5.5c4.2,1.4,5.6,4.9,4.1,10.7c-4.9,19-11.7,37.2-24.9,52.2
	c-15.9,17.9-35.8,25-58.9,18.2c-22.8-6.7-45-15.2-67.5-22.8c-8.5-2.9-17-6-25.7-8.1c-19.7-4.9-33.9,1.1-44.7,18.4
	c-1.7,2.7-3.1,5.5-4.9,8.1c-2,2.9-5,3.9-8.3,2.5c-3.2-1.4-5.2-4-4.2-7.6c6.2-23.1,14.9-44.9,33.6-61.1C54,138.6,67.2,134,85.3,134z"
	/>
<path class="st0" d="M77.7,67.1c0-28.3,22.9-51.1,51.2-51.2c28.4-0.1,51.3,23,51.2,51.6c-0.1,28.3-22.9,51.2-51.2,51.2
	C100.6,118.9,77.7,95.8,77.7,67.1z"/>
<path class="st0" d="M503.5,221.5c-5.7,0-10.8,0-16.7,0c0-1.9,0-3.7,0-5.4c0-13.5,0-27,0-40.5c0-7.2-3.2-9.3-9.9-6.5
	c-4.8,2-7.6,4.7-7.3,10.8c0.6,13.6,0.2,27.3,0.2,41.4c-5.3,0-10.4,0-16,0c-0.1-1.8-0.3-3.7-0.4-5.6c-0.1-13.7-0.2-27.3-0.4-41
	c0-4.3-1.5-7.1-6.5-6.8c-5.7,0.4-10.7,4.1-10.7,8.2c-0.1,13.2,0,26.3,0,39.5c0,1.8,0,3.6,0,5.8c-5.8,0-11.2,0-17.1,0
	c0-10.7,0.1-21.2,0-31.6c-0.1-10.4-0.5-20.9-0.7-32.3c3.8-1.1,8.9-2.4,14.1-3.9c0.9,2,1.6,3.6,2.5,5.8c11.3-7.4,22.4-9,32.6,2.7
	c6.4-7,14.3-9.5,23.5-8c7.2,1.2,12.5,5.4,12.7,12.1C503.8,184.4,503.5,202.7,503.5,221.5z"/>
<path class="st0" d="M287.7,17.1c5.9,0,11.7,0,18,0c0,4.7,0,9.1,0,13.6c0,16.2-0.1,32.3,0.1,48.5c0.1,10.5,6.3,15.5,16.6,14
	c7.5-1.1,11.2-5.2,11.3-13.3c0.1-19,0.1-38,0.2-57c0-1.8,0-3.6,0-5.7c6.3,0,12.2,0,18.1,0c0.2,0.6,0.5,1.1,0.5,1.6
	c-0.1,22.5,0.1,45-0.5,67.4c-0.3,11.9-9.8,20.8-24.2,22.3c-7.4,0.8-15.4,0.1-22.7-1.6c-11.2-2.6-17.7-10.9-17.9-22.4
	c-0.4-22-0.1-44,0-66C287.2,18.1,287.4,17.8,287.7,17.1z"/>
<path class="st0" d="M386.2,179.9c1.6-10.3-2.3-14.2-11.8-11.5c-5,1.4-9.8,4-15.1,6.3c-2.2-3.6-4.5-7.5-7.2-12
	c13.1-7.6,26.2-12.5,41-7.4c7,2.4,10.6,7.9,10.7,15.3c0.1,9.7,0,19.3,0,29c0,8.4,0.1,8.6,5.9,14.9c-3,3.4-6,6.9-9.4,10.9
	c-3.3-2.6-6.4-5.1-9.7-7.7c-5.9,6-13.5,6.9-21.6,6.1c-10-1-16.7-7.1-18-16.4c-1.6-11.5,2.8-20.4,12.4-24.1c3.5-1.4,7.4-2,11.1-2.6
	C378.2,180.2,382.1,180.2,386.2,179.9z M387.3,199.5c-0.9-2.4-1.9-6.8-2.8-6.8c-4,0-8.3,0.7-11.9,2.4c-3.5,1.6-4.1,8.3-1.9,12.2
	c2.2,3.8,6.3,4.7,10.9,2.9C386.6,208.1,386.1,203.8,387.3,199.5z"/>
<path class="st0" d="M841.3,100.1c-3.4,3.9-6.3,7.3-9.7,11.2c-3.3-2.6-6.3-5-9.7-7.6c-6.7,6.7-15.3,7.4-24.3,5.5
	c-9.7-2-14.6-7.8-15.5-17.6c-1-10.2,3.2-18.7,12-21.9c5.7-2,12-2.5,18-3.6c1.7-0.3,3.6,0,5.3,0c1.8-10.5-2.2-14.3-12.1-11.7
	c-2.6,0.7-5,1.7-7.4,2.9c-2.2,1.1-4.4,2.4-7,3.9c-2.4-4-4.8-7.9-7.5-12.4c13-7.8,26.3-12.6,41.2-7.3c8.2,2.9,11.3,9.7,10.8,21.5
	c-0.3,7.3-0.4,14.6-0.7,22C834.6,90.6,835.5,96.1,841.3,100.1z M817.7,77.9c-4.2,0.6-8,0.8-11.5,1.8c-4.4,1.3-6.4,6.1-5.2,10.9
	c1.1,4.4,4.4,6.8,8.8,6.3c5.1-0.6,7.9-3.8,8-8.8C817.7,85.1,817.7,82.2,817.7,77.9z"/>
<path class="st0" d="M977.3,203.3c2.7,3.8,5.3,7.4,7.9,11c-14.1,13.7-42.2,11.2-55.4-4.5c-15.7-18.9-13.2-54.9,5-71.4
	c12.8-11.6,35.6-12.7,48.5-2.1c-2.6,3.9-5.2,7.8-8,12c-1.6-0.8-2.8-1.5-4.1-2.2c-12.7-6.5-25.9-0.8-29.2,13.1
	c-2.7,11.3-2.6,22.9,0,34.1c3.2,13.8,17.1,19.6,29.9,13.1C973.7,205.5,975.4,204.4,977.3,203.3z"/>
<path class="st0" d="M347.9,136.2c-2.7,4-5.3,7.9-7.7,11.5c-4.7-1.4-9-3.3-13.4-3.9c-8.9-1.1-16.3,3.5-19.1,11.9
	c-4.5,13.3-4.5,27-0.3,40.3c3.9,12.1,17.5,16.5,29.2,10.3c1.6-0.8,3.1-1.9,4.9-3c2.7,3.7,5.3,7.3,8.4,11.5c-2.5,1.6-4.7,3.4-7.2,4.5
	c-19.3,8.8-49.5,4.6-56.9-26.6c-4.3-18-2.7-35.6,9.7-50.6c11.4-13.7,33.4-17.4,48.8-8.4C345.6,134.3,346.6,135.2,347.9,136.2z"/>
<path class="st0" d="M764.3,188.5c-0.2,2.8-0.3,6-0.8,9c-3,16.7-14.9,26.1-31.7,25.3c-15.4-0.8-26.3-12.2-27.7-29.3
	c-0.9-10.3,0.3-20.3,6.8-29c7.3-9.8,19.8-13.5,32.2-10c11.1,3.1,19.4,13.4,20.7,25.6C764,182.8,764.1,185.5,764.3,188.5z
	 M745.6,188.4c-0.8-5.2-1.1-10-2.3-14.7c-1.1-4.7-4.6-7.4-9.5-7.2c-4.7,0.1-7.8,3-8.9,7.4c-2.5,9.7-2.4,19.4,0,29.1
	c1.1,4.5,4.4,6.9,9.1,7.2c4.7,0.2,7.8-2.2,8.9-6.5C744.2,198.6,744.7,193.3,745.6,188.4z"/>
<path class="st0" d="M578.3,187c0.4-2.9,0.7-6.9,1.6-10.7c3.8-15.1,14.7-23.2,30.3-22.8c14.2,0.4,25.1,9.8,27.7,24.6
	c1.9,11,1.6,22-4.6,31.8c-6.8,10.8-19.1,15.2-32.3,12.1c-12.1-2.8-20.6-13-22.1-26.5C578.6,193.1,578.6,190.6,578.3,187z
	 M620.4,188.3c-0.8-5.1-1.3-9.8-2.4-14.5c-1.1-4.8-4.5-7.4-9.4-7.4c-4.7,0-7.8,2.8-9,7.3c-2.6,9.8-2.5,19.8,0,29.6
	c1.1,4.4,4.4,6.5,8.8,6.8c4.7,0.3,7.8-2.1,9-6.3C618.9,198.7,619.5,193.4,620.4,188.3z"/>
<path class="st0" d="M886.6,193.9c-13.6,0-26,0-38.7,0c-0.4,6.1,0.8,11.4,5.9,14.2c9,5.1,17,1.2,24.9-4.3c2.2,3.4,4.3,6.7,6.7,10.3
	c-11.2,9.1-23.4,11.9-36.7,7.5c-12.6-4.2-18.7-14.3-19.6-27c-0.5-7.2,0-14.8,1.9-21.7c3.7-13.4,14.9-20.2,29.5-19.4
	c13.2,0.7,21.6,8.2,24.3,22.2C885.9,181.5,886,187.3,886.6,193.9z M867.8,180.7c0.2-9.8-3.3-14.8-10-14.4c-6.4,0.3-10.2,6-9.4,14.4
	C854.7,180.7,861.1,180.7,867.8,180.7z"/>
<path class="st0" d="M573.2,79.6c-13.3,0-25.7,0-38.3,0c-0.6,6.4,0.8,11.8,6.1,14.6c8.8,4.7,16.7,1,24.5-4.4
	c2.2,3.3,4.3,6.6,6.7,10.2c-10.7,9-22.6,11.5-35.6,7.8c-12.8-3.7-19.1-13.5-20.6-26.1c-0.7-6.3-0.4-13,0.8-19.3
	c2.7-14.4,14.4-23.6,28.3-23.2c15.1,0.4,24,8.1,26.8,23.7C572.8,68.2,572.7,73.7,573.2,79.6z M535,66.2c6.8,0,13.3,0,19.7,0
	c0.1-9.3-3.4-14.3-9.7-14.2C538.6,52.2,534.7,57.6,535,66.2z"/>
<path class="st0" d="M1045.3,193.9c-13.5,0-25.9,0-38.5,0c-0.5,6.4,0.9,11.8,6.3,14.5c8.9,4.6,16.7,0.8,24.4-4.6
	c2.2,3.4,4.4,6.7,6.7,10.3c-11,8.9-23,11.7-36.1,7.6c-12.5-4-18.9-13.6-20-26.1c-0.6-7.8-0.1-16.1,2.1-23.6
	c3.7-13.1,15.6-19.7,30.1-18.4c12.8,1.1,21.2,9,23.5,22.6C1044.7,181.8,1044.8,187.5,1045.3,193.9z M1026.6,180.7
	c0.4-5.2,0.2-10.4-4.7-12.8c-2.8-1.4-7.4-1.3-10.1,0.1c-4.6,2.4-5.3,7.5-4.9,12.7C1013.6,180.7,1020,180.7,1026.6,180.7z"/>
<path class="st0" d="M396.9,107.3c0-7,0-13.8,0-20.5c0-8.7,0.1-17.3-0.1-26c-0.1-5.5-2.9-7.4-8.2-6.1c-7.1,1.7-9.7,5.1-9.7,12.5
	c0,11.5,0,23,0,34.5c0,1.8,0,3.6,0,5.7c-5.8,0-11,0-17.7,0c0-21.2,0-42.3,0-64.5c3.3-1,8.2-2.4,13.6-4c1,2.5,2,4.8,3,7.2
	c3.8-1.8,7.6-4,11.6-5.3c5.8-2,12.1-2.3,17.3,1.4c3.1,2.3,6.8,6.3,6.9,9.6c0.7,18.4,0.3,36.8,0.3,55.6
	C408.2,107.3,402.8,107.3,396.9,107.3z"/>
<path class="st0" d="M619,101.8c2.2-4.5,4.1-8.5,5.8-12c6.7,2.2,13.1,4.5,19.6,6.3c2.1,0.6,5,0.5,6.7-0.5c2.1-1.3,4.5-4,4.7-6.2
	c0.1-2.1-2-5.4-4-6.5c-3.1-1.7-6.9-2.3-10.5-2.9c-13.2-2.4-19.3-8.4-19.3-19.5c0-11.2,8.1-19.7,20.5-21.3c10.2-1.3,19.8,0.7,29.3,6
	c-1.9,3.8-3.8,7.6-5.5,11.1c-4.5-1.4-8.6-2.9-12.7-3.9c-2.2-0.5-5-0.8-6.8,0.2c-2.2,1.1-4.8,3.5-5.1,5.7c-0.3,1.6,2.3,4.7,4.3,5.6
	c4.2,1.9,8.8,2.8,13.4,4c8.1,2.1,13.8,6.7,15,15.3c1.3,8.8-1.9,16-9.3,21.2c-6,4.2-12.9,5.5-19.9,5.2
	C636,109.3,627.6,106.4,619,101.8z"/>
<path class="st0" d="M820.1,159.5c-1.9,3.9-3.7,7.6-5.3,10.9c-5-1.5-9.6-3-14.2-4c-2-0.4-4.6-0.3-6.3,0.6c-1.9,1.1-4.1,3.4-4.2,5.3
	c-0.1,1.8,2,4.7,3.8,5.5c4.9,2,10.2,2.9,15.3,4.6c14.5,4.6,18.7,21.3,8.5,32.5c-5.4,5.9-12.5,8.2-20.1,8.7
	c-10.6,0.7-20.3-2.4-30-7.7c2-4.2,3.9-8.1,5.7-11.9c6.5,2.2,12.7,4.3,19,6.3c1.7,0.5,3.7,0.5,5.4,0.2c3.8-0.6,6.6-2.8,7-6.7
	c0.5-4.2-2.3-6.5-5.9-7.5c-3.7-1.1-7.5-1.7-11.2-2.4c-10.2-2-15.9-7.6-16.7-16.5c-1-10.4,3.8-18.4,13.2-22.2
	C794.2,151,808.5,152.6,820.1,159.5z"/>
<path class="st0" d="M514.2,40.6c-0.7,2.4-1.1,4.1-1.7,5.8c-6.9,18.9-13.9,37.8-20.7,56.7c-1.2,3.2-2.5,4.8-6.3,4.6
	c-12.2-0.6-9,2-13.1-9.1c-7-18.7-13.8-37.4-21-56.9c6.1-0.8,11.8-1.5,18-2.3c4.6,14.6,9.2,29,13.7,43.3c4-12.8,8-25.4,11.8-38.1
	c0.9-3.1,2.3-4.3,5.6-4.1C504.8,40.8,509.3,40.6,514.2,40.6z"/>
<path class="st0" d="M576.4,222.7c-4.7,0-9.5,0.5-14.2-0.1c-7.7-1.1-12.3-6.8-12.4-15.1c-0.2-11.5-0.1-23-0.1-34.4
	c0-14.4,0-28.9,0-44.2c4.8-1.1,10.6-2.5,16.9-4c0.3,4.7,0.8,9.1,0.8,13.5c0.1,20.8,0,41.6,0.1,62.4c0,4.3-1.3,9.4,5.9,10.8
	c1.8,0.3,2.5,5.9,3.7,9.1C576.9,221.3,576.6,222,576.4,222.7z"/>
<path class="st0" d="M1055.1,128.9c5.3-1.2,10.9-2.5,17.3-4c0.3,5,0.7,9.5,0.7,14.1c0.1,20.3-0.1,40.6,0.1,60.9
	c0,4.6-1.6,10.1,6.1,11.7c1.7,0.4,2.4,6,4.1,10.6c-6.3,0-11.8,0.7-16.9-0.2c-6.6-1.2-10.3-6-10.7-12.7c-0.5-8.1-0.6-16.3-0.7-24.4
	C1055,166.4,1055.1,148,1055.1,128.9z"/>
<path class="st0" d="M583.4,42.8c3.6-1,8.7-2.4,14.1-3.8c1,2.9,1.9,5.4,3,8.4c6-5.6,12-11,21.6-6.8c-1.5,5-3,9.8-4.5,14.9
	c-1.4-0.3-2.7-0.6-3.9-0.7c-7.2-0.8-12.1,3.6-12.1,10.7c0,13.8,0,27.6,0,41.7c-5.8,0-11.4,0-18.3,0C583.4,86,583.4,64.8,583.4,42.8z
	"/>
<path class="st0" d="M701.5,107.3c-6,0-11.4,0-17.1,0c-0.1-1.6-0.3-2.9-0.3-4.1c0-18.9,0.1-37.9-0.1-56.8c0-3.6,1.1-5,4.6-5.4
	c4.3-0.4,8.5-1.2,12.9-1.8C701.5,61.9,701.5,84.5,701.5,107.3z"/>
<path class="st0" d="M535.5,221.4c-5.8,0-11.2,0-17,0c0-21.7,0-43.2,0-65.5c5.4-0.9,11.1-1.8,17-2.7
	C535.5,176,535.5,198.4,535.5,221.4z"/>
<path class="st0" d="M445.6,39.2c0,22.9,0,45.3,0,68.5c-4.9,0-9.7,0.2-14.4-0.1c-1-0.1-2.6-2-2.6-3.1c-0.2-19.8-0.2-39.6,0-59.4
	c0-1.3,1.9-3.4,3.3-3.7C436.2,40.2,440.7,39.9,445.6,39.2z"/>
<path class="st0" d="M848.6,148.9c-1.8-3.3-3.5-6.3-5.4-9.8c9.1-5.7,17.9-11.2,27-17c2.6,4.7,5,8.9,7.6,13.6
	C868.1,140.2,858.5,144.5,848.6,148.9z"/>
<path class="st0" d="M692.7,33c-6.1-0.1-10.7-4.7-10.6-10.7c0-6.2,4.9-10.8,11.3-10.6c6.1,0.2,10.5,4.9,10.4,11
	C703.5,28.5,698.7,33,692.7,33z"/>
<path class="st0" d="M526.7,147.1c-5.9-0.1-10.7-5-10.6-10.9c0.1-6.1,5.2-10.8,11.4-10.7c6,0.2,10.4,5,10.3,11.1
	C537.5,142.7,532.8,147.2,526.7,147.1z"/>
<path class="st0" d="M447.8,22.1c0.1,6.2-4.4,10.8-10.5,10.9c-6.3,0.1-10.8-4.2-10.8-10.5c-0.1-6.3,4.2-10.7,10.5-10.9
	C443.3,11.4,447.7,15.8,447.8,22.1z"/>
</svg>
