<?xml version="1.0" encoding="utf-8"?>
<!-- Generator: Adobe Illustrator 19.0.0, SVG Export Plug-In . SVG Version: 6.00 Build 0)  -->
<svg version="1.1" id="Capa_1" xmlns="http://www.w3.org/2000/svg" xmlns:xlink="http://www.w3.org/1999/xlink" x="0px" y="0px"
	 viewBox="0 0 1024 177.8" style="enable-background:new 0 0 1024 177.8;" xml:space="preserve">
<style type="text/css">
	.st0{fill:#223656;}
	.st1{fill:#00A2FF;}
</style>
<g id="XMLID_2_">
	<g id="XMLID_37_">
		<path id="XMLID_38_" class="st0" d="M58.8,159c-6.1,5.6-13.9,9.9-24.5,9.9C18,168.9,6,158.1,6,141.7c0-11.5,5.6-18.8,14.4-23.3
			c6-3.1,13.3-4.5,22-4.9L57,113v-2.7c0-9.9-6.5-14.2-16.4-14.2c-8.5,0-16.2,2.7-22.4,6l-7-13.9c10.1-5.6,21.1-8.5,33-8.5
			c22.9,0,34.3,10.5,34.3,31v34.6c0,9.9,0.4,17.3,1.6,21.8H62L58.8,159z M45.5,127.8c-5.6,0.2-9.6,1.1-12.4,2.7
			c-3.6,2-5.2,5.4-5.2,9.7c0,7.4,4.9,11.7,12.6,11.7c7.9,0,13.7-4,16.6-6.3v-18.2L45.5,127.8z"/>
		<path id="XMLID_41_" class="st0" d="M101.5,152.1c-2-4.7-2.9-9.9-2.9-17.9V81.8h21.5v50.3c0,4.5,0.5,7.9,1.8,10.6
			c2.2,5.1,6.3,7.8,12.8,7.8c7,0,13.7-3.4,17.5-7.6V81.8h21.6V146c0,9.2,0.2,16.6,1.4,21.1h-18.4l-3.2-8.8
			c-6.5,5.8-15.3,10.6-26.5,10.6C118.9,168.9,106.8,165.5,101.5,152.1z"/>
		<path id="XMLID_43_" class="st0" d="M196.2,39.4h21.5V142c0,6,2.3,7.8,6.3,7.8c1.1,0,3.6-0.4,5.4-1.1l4.1,16.6
			c-5.1,2.2-11,3.1-15.9,3.1c-14.2,0-21.5-7-21.5-20.6V39.4z"/>
		<path id="XMLID_45_" class="st0" d="M295.4,159c-6.1,5.6-13.9,9.9-24.5,9.9c-16.2,0-28.3-10.8-28.3-27.2
			c0-11.5,5.6-18.8,14.4-23.3c6-3.1,13.3-4.5,22-4.9l14.6-0.5v-2.7c0-9.9-6.5-14.2-16.4-14.2c-8.5,0-16.2,2.7-22.4,6l-7-13.9
			c10.1-5.6,21.1-8.5,33-8.5c22.9,0,34.3,10.5,34.3,31v34.6c0,9.9,0.4,17.3,1.6,21.8h-18L295.4,159z M282.1,127.8
			c-5.6,0.2-9.6,1.1-12.4,2.7c-3.6,2-5.2,5.4-5.2,9.7c0,7.4,4.9,11.7,12.6,11.7c7.9,0,13.7-4,16.6-6.3v-18.2L282.1,127.8z"/>
		<path id="XMLID_48_" class="st1" d="M339.8,48.2h28.7c11,0,19.7,1.6,26.7,5c12.3,6.1,19.3,17.7,19.3,33.9c0,13.7-6,28-22.7,34.8
			c-6.5,2.5-14.6,4.1-25.3,4.1h-5v40.9h-21.6V48.2z M367.9,108.5c5.8,0,10.5-0.9,13.9-2.7c6.7-3.2,9.9-9.7,9.9-18.6
			c0-7.8-3.1-14.4-9.4-18.2c-3.4-2-8.3-3.1-14.8-3.1h-6.1v42.6H367.9z"/>
		<path id="XMLID_51_" class="st1" d="M434.7,39.4h21.5V142c0,6,2.3,7.8,6.3,7.8c1.1,0,3.6-0.4,5.4-1.1l4.1,16.6
			c-5.1,2.2-11,3.1-15.9,3.1c-14.2,0-21.5-7-21.5-20.6V39.4z"/>
		<path id="XMLID_53_" class="st1" d="M533.9,159c-6.1,5.6-13.9,9.9-24.5,9.9c-16.2,0-28.3-10.8-28.3-27.2
			c0-11.5,5.6-18.8,14.4-23.3c6-3.1,13.3-4.5,22-4.9l14.6-0.5v-2.7c0-9.9-6.5-14.2-16.4-14.2c-8.5,0-16.2,2.7-22.4,6l-7-13.9
			c10.1-5.6,21.1-8.5,33-8.5c22.9,0,34.3,10.5,34.3,31v34.6c0,9.9,0.4,17.3,1.6,21.8h-18L533.9,159z M520.5,127.8
			c-5.6,0.2-9.6,1.1-12.4,2.7c-3.6,2-5.2,5.4-5.2,9.7c0,7.4,4.9,11.7,12.6,11.7c7.9,0,13.7-4,16.6-6.3v-18.2L520.5,127.8z"/>
		<path id="XMLID_56_" class="st1" d="M573.7,81.8h18.4l2.2,9.6c9-7,18.6-11.7,29.2-11.7c13.5,0,27.4,6.7,27.4,31v56.5h-21.6v-49.8
			c0-10.5-2.2-18.9-13.2-18.9c-7,0-14.6,3.8-20.9,9v59.7h-21.5V81.8z"/>
		<path id="XMLID_58_" class="st1" d="M688.8,130.3c0.5,13.2,9.9,21.6,24.2,21.6c8.5,0,15.3-2.3,21.5-5.8l6.5,14.8
			c-9,5.6-19.7,7.9-30.1,7.9c-31,0-43.6-21.3-43.6-44.4c0-25.6,14.1-44.9,38.4-44.9c24,0,37.9,17.3,37.9,45.6v5.1H688.8z
			 M721.6,115.3c-0.2-9.7-5-19.3-16.4-19.3c-10.6,0-16.4,9-16.6,19.3H721.6z"/>
		<path id="XMLID_61_" class="st1" d="M767.8,146V98.6h-15.3V81.8h15.3V61.9l21.5-6.3v26.2H815l-5.2,16.8h-20.6v42.2
			c0,7.9,2.7,10.8,8.3,10.8c5,0,9.7-2,13-4.1l6.5,14.8c-6.1,4.1-16.4,6.7-24.9,6.7C777,168.9,767.8,160.2,767.8,146z"/>
		<path id="XMLID_63_" class="st1" d="M878,159c-6.1,5.6-13.9,9.9-24.5,9.9c-16.2,0-28.3-10.8-28.3-27.2c0-11.5,5.6-18.8,14.4-23.3
			c6-3.1,13.3-4.5,22-4.9l14.6-0.5v-2.7c0-9.9-6.5-14.2-16.4-14.2c-8.5,0-16.2,2.7-22.4,6l-7-13.9c10.1-5.6,21.1-8.5,33-8.5
			c22.9,0,34.3,10.5,34.3,31v34.6c0,9.9,0.4,17.3,1.6,21.8h-18L878,159z M864.6,127.8c-5.6,0.2-9.6,1.1-12.4,2.7
			c-3.6,2-5.2,5.4-5.2,9.7c0,7.4,4.9,11.7,12.6,11.7c7.9,0,13.7-4,16.6-6.3v-18.2L864.6,127.8z"/>
	</g>
	<path id="XMLID_4_" class="st0" d="M976.3,79c-11.7,0-17,8-17,8c5.1,2.2,10.9,3.5,16.9,3.5c6.1,0,11.9-1.3,17-3.6
		C993.2,87,988,79,976.3,79 M998.1,12.2c0,0-6.5,10.6-21.8,10.6c-15.4,0-22.6-10.6-22.6-10.6c-4.3,2.8-8.2,6.3-11.2,10.4
		c0,0,12.3,8.5,33.8,8.5c21.4,0,33.4-8.9,33.4-8.9C1006.6,18.1,1002.5,15,998.1,12.2 M976.2,5.9c-6.1,0-11.9,1.3-17.2,3.7
		c0,0,4.7,7.6,17.3,7.6c12.6,0,16.5-8,16.5-8C987.7,7,982.1,5.9,976.2,5.9 M976.2,96.4c-20.3,0-37.8-12.6-44.8-30.5h6.4
		c0.5,1.1,1.1,2.2,1.6,3.3c0,0,2.2-1.5,6.3-3.3h22.5c-15.4,1.8-25.4,8.1-25.4,8.1c3.1,4.1,7,7.6,11.5,10.3c0,0,7.8-11,22.2-11
		c15.1,0,22.4,10.8,22.4,10.8c4.2-2.7,8-6.1,11-10c0,0-9.4-6.4-25-8.2h22.6c3.7,1.7,5.8,3,5.8,3c0.6-1,1.1-2,1.6-3h6.4
		C1014,83.8,996.5,96.4,976.2,96.4 M984.7,66c-2.6-0.4-5.4-0.5-8.3-0.5c-2.9,0-5.6,0.1-8.2,0.5h-22.5c6.3-2.9,17-6.5,30.7-6.5
		c13.9,0,24.7,3.7,31,6.5H984.7z M1021.1,66h-6.4c2.1-4.6,3.5-9.7,3.9-15H934c0.3,5.3,1.6,10.3,3.8,15h-6.4
		c-2.2-5.5-3.4-11.5-3.4-17.7c0-2.4,0.2-4.8,0.5-7.1h6c-0.3,1.3-0.4,2.7-0.5,4h84.5c-0.1-1.4-0.2-2.7-0.5-4h6
		c0.3,2.3,0.5,4.7,0.5,7.1C1024.4,54.5,1023.3,60.4,1021.1,66 M1018,41.1c-0.9-4.8-2.6-9.5-5.1-13.6c0,0-14.9,9.4-36.6,9.4
		c-21.7,0-37.1-9.2-37.1-9.2c-2.3,4-3.9,8.6-4.7,13.4h-6C932,17.8,952,0,976.2,0c24.2,0,44.3,17.8,47.8,41.1H1018z"/>
</g>
</svg>
