<?xml version="1.0" encoding="utf-8"?>
<!-- Generator: Adobe Illustrator 22.0.0, SVG Export Plug-In . SVG Version: 6.00 Build 0)  -->
<svg version="1.1" id="Capa_1" xmlns="http://www.w3.org/2000/svg" xmlns:xlink="http://www.w3.org/1999/xlink" x="0px" y="0px"
	 viewBox="0 0 595.3 198.4" style="enable-background:new 0 0 595.3 198.4;" xml:space="preserve">
<style type="text/css">
	.st0{fill:#FFFFFF;}
</style>
<g>
	<path class="st0" d="M274.5,96.1c0,6-0.8,11.5-2.3,16.4s-3.8,9-6.7,12.5c-3,3.4-6.7,6.1-11.2,7.9c-4.5,1.9-9.7,2.8-15.7,2.8h-33.8
		V131h1.4c1.3,0,2.4-0.1,3.5-0.3s2.1-0.5,2.9-1.1c0.8-0.6,1.5-1.4,1.9-2.4c0.5-1,0.7-2.4,0.7-4.1V68.9c0-1.6-0.2-2.9-0.7-3.9
		s-1.1-1.8-2-2.3c-0.8-0.5-1.8-0.9-2.9-1.1c-1.1-0.2-2.3-0.2-3.5-0.2h-1.4v-4.6h33.8c5.7,0,10.7,0.9,15.2,2.6
		c4.5,1.7,8.2,4.3,11.3,7.6c3.1,3.3,5.4,7.5,7,12.3C273.7,84.3,274.5,89.9,274.5,96.1z M236,130c4.4,0,8.2-0.7,11.5-2.2
		s6-3.7,8.2-6.6s3.8-6.4,4.9-10.6s1.6-9,1.6-14.5c0-11-2.2-19.3-6.5-25.1c-4.4-5.8-10.9-8.7-19.7-8.7h-9.7V130H236z"/>
	<path class="st0" d="M312.5,136.7c-4,0-7.6-0.7-10.8-2c-3.2-1.3-5.9-3.3-8.1-5.9c-2.2-2.6-3.9-5.8-5-9.5c-1.2-3.8-1.8-8-1.8-12.8
		c0-10.3,2.1-18.1,6.4-23.3c4.2-5.2,10.3-7.8,18.1-7.8c3.6,0,6.8,0.6,9.6,1.7c2.8,1.1,5.2,2.8,7.2,5s3.5,5,4.6,8.2
		c1.1,3.3,1.6,7.1,1.6,11.5v5.1h-36.8c0.1,4,0.5,7.5,1.2,10.4s1.8,5.3,3.2,7.1c1.4,1.9,3.1,3.2,5.1,4.1c2,0.9,4.3,1.3,7,1.3
		c1.9,0,3.7-0.2,5.3-0.6c1.6-0.4,3.1-1,4.4-1.7s2.5-1.5,3.5-2.5c1-0.9,1.9-1.9,2.5-2.9c0.5,0.2,1,0.7,1.4,1.3
		c0.4,0.7,0.7,1.5,0.7,2.4c0,1.1-0.4,2.3-1.2,3.6c-0.8,1.3-2,2.5-3.6,3.5c-1.6,1.1-3.6,2-6.1,2.7
		C318.6,136.4,315.8,136.7,312.5,136.7z M311.2,81.3c-4.1,0-7.2,1.7-9.5,5c-2.2,3.3-3.5,8.2-3.9,14.6h25.4c0-2.9-0.2-5.6-0.6-8
		s-1.1-4.5-2-6.2s-2.2-3.1-3.7-4C315.3,81.8,313.4,81.3,311.2,81.3z"/>
	<path class="st0" d="M401.6,105.9c0,5.3-0.5,9.9-1.5,13.8s-2.4,7.1-4.3,9.6s-4.3,4.4-7.1,5.6c-2.8,1.2-6,1.8-9.6,1.8
		c-2.1,0-4-0.2-5.8-0.7c-1.7-0.5-3.3-1.1-4.7-2c-1.4-0.9-2.6-1.9-3.7-3.1c-1.1-1.2-2-2.5-2.8-3.9h-0.7l-1.9,8.6h-17.7V131h0.9
		c1.3,0,2.4-0.1,3.5-0.3s2-0.5,2.9-1.1c0.8-0.6,1.5-1.4,1.9-2.4c0.5-1,0.7-2.4,0.7-4.1V63.9c0-1.6-0.2-2.9-0.7-3.9s-1.1-1.8-2-2.3
		c-0.8-0.5-1.8-0.9-2.9-1.1c-1.1-0.2-2.3-0.2-3.5-0.2h-0.9v-4.6H362V72c0,1.3,0,2.7-0.1,4.3c0,1.6-0.1,3.2-0.2,4.7
		c-0.1,1.7-0.1,3.5-0.2,5.3h0.4c0.8-1.7,1.8-3.2,2.8-4.6s2.2-2.5,3.6-3.5s2.9-1.7,4.6-2.2s3.7-0.8,5.8-0.8c3.6,0,6.8,0.6,9.6,1.8
		c2.8,1.2,5.2,3.1,7.1,5.6s3.4,5.7,4.3,9.5C401.1,96.1,401.6,100.7,401.6,105.9z M377.2,82.4c-2.9,0-5.3,0.5-7.2,1.4
		c-1.9,1-3.5,2.4-4.6,4.3c-1.2,1.9-2,4.4-2.5,7.3s-0.7,6.4-0.7,10.4c0,3.8,0.2,7.2,0.7,10.2c0.5,2.9,1.3,5.4,2.5,7.4
		s2.7,3.5,4.6,4.6c1.9,1,4.3,1.5,7.3,1.5c2.4,0,4.5-0.5,6.2-1.5s3.1-2.5,4.2-4.6c1.1-2,1.9-4.5,2.4-7.5s0.8-6.4,0.8-10.3
		s-0.3-7.3-0.8-10.3c-0.5-2.9-1.3-5.4-2.4-7.3s-2.5-3.4-4.3-4.4C381.8,82.9,379.7,82.4,377.2,82.4z"/>
	<path class="st0" d="M437.3,80.9c-2.1,0-3.8,0.3-5.1,0.9c-1.3,0.6-2.3,1.4-3.1,2.5c-0.7,1.1-1.2,2.4-1.5,3.8
		c-0.2,1.5-0.4,3.1-0.4,4.8c-3.1,0-5.4-0.5-7-1.6c-1.6-1-2.4-2.8-2.4-5.4c0-1.9,0.5-3.5,1.6-4.9c1-1.3,2.5-2.4,4.3-3.3
		c1.8-0.8,3.9-1.5,6.3-1.9s5-0.6,7.7-0.6c3.4,0,6.3,0.3,8.8,1s4.6,1.8,6.3,3.3c1.7,1.5,3,3.5,3.8,5.9s1.3,5.4,1.3,8.9v28.6
		c0,1.5,0.1,2.8,0.4,3.8s0.6,1.8,1.2,2.4c0.5,0.6,1.2,1,2.1,1.3s1.9,0.4,3.2,0.4h0.3v4.6h-14.9l-1.7-9.5h-0.9
		c-1.2,1.5-2.3,3-3.3,4.3c-1.1,1.3-2.3,2.4-3.6,3.3c-1.3,0.9-2.8,1.7-4.4,2.2s-3.6,0.8-5.9,0.8c-2.4,0-4.7-0.4-6.8-1.1
		c-2.1-0.7-3.9-1.8-5.4-3.2c-1.5-1.5-2.7-3.3-3.6-5.5s-1.3-4.8-1.3-7.8c0-5.9,2.1-10.2,6.3-13c4.2-2.8,10.5-4.4,18.9-4.6l9.2-0.3
		v-6.6c0-2-0.1-3.8-0.3-5.5c-0.2-1.7-0.7-3.1-1.4-4.3c-0.7-1.2-1.8-2.1-3.1-2.8C441.4,81.2,439.5,80.9,437.3,80.9z M423.9,119.6
		c0,3.5,0.7,6,2.2,7.7c1.5,1.7,3.7,2.6,6.8,2.6c2.2,0,4.3-0.4,6.1-1.1c1.8-0.7,3.4-1.7,4.6-3.1c1.3-1.3,2.3-2.9,2.9-4.9
		c0.7-1.9,1-4,1-6.4v-9l-7.1,0.3c-3.1,0.1-5.7,0.5-7.8,1.2c-2.1,0.6-3.8,1.5-5.1,2.6c-1.3,1.1-2.2,2.5-2.8,4.2
		C424.2,115.6,423.9,117.5,423.9,119.6z"/>
	<path class="st0" d="M499.1,130.9c1.3,0,2.6-0.1,3.7-0.2c1.1-0.1,2.2-0.3,3.4-0.5v4.9c-0.5,0.2-1.1,0.4-1.8,0.6
		c-0.8,0.2-1.6,0.4-2.5,0.6c-0.9,0.2-1.8,0.3-2.8,0.4c-1,0.1-1.9,0.1-2.8,0.1c-2.8,0-5.2-0.3-7.2-0.9c-2-0.6-3.7-1.6-5-2.9
		c-1.3-1.3-2.3-3.1-2.9-5.3s-0.9-4.9-0.9-8V82.8H472v-4.4c1.3,0,2.8-0.3,4.4-0.8s3-1.4,4.2-2.7c1.3-1.4,2.3-3,3-4.9
		c0.8-1.9,1.4-4.3,2-7.1h5.1v13.6h14.5v6.3h-14.5V120c0,3.8,0.8,6.5,2.3,8.3C494.5,130,496.6,130.9,499.1,130.9z"/>
	<path class="st0" d="M540.4,136.7c-4,0-7.6-0.7-10.8-2s-5.9-3.3-8.1-5.9c-2.2-2.6-3.9-5.8-5-9.5c-1.2-3.8-1.8-8-1.8-12.8
		c0-10.3,2.1-18.1,6.4-23.3c4.2-5.2,10.3-7.8,18.1-7.8c3.6,0,6.8,0.6,9.6,1.7s5.2,2.8,7.2,5s3.5,5,4.6,8.2c1.1,3.3,1.6,7.1,1.6,11.5
		v5.1h-36.8c0.1,4,0.5,7.5,1.2,10.4s1.8,5.3,3.2,7.1c1.4,1.9,3.1,3.2,5.1,4.1c2,0.9,4.3,1.3,7,1.3c1.9,0,3.7-0.2,5.3-0.6
		c1.6-0.4,3.1-1,4.4-1.7c1.3-0.7,2.5-1.5,3.5-2.5c1-0.9,1.9-1.9,2.5-2.9c0.5,0.2,1,0.7,1.4,1.3c0.4,0.7,0.7,1.5,0.7,2.4
		c0,1.1-0.4,2.3-1.2,3.6s-2,2.5-3.6,3.5c-1.6,1.1-3.6,2-6.1,2.7C546.5,136.4,543.7,136.7,540.4,136.7z M539.1,81.3
		c-4.1,0-7.3,1.7-9.5,5s-3.5,8.2-3.9,14.6h25.4c0-2.9-0.2-5.6-0.6-8c-0.4-2.4-1.1-4.5-2.1-6.2c-0.9-1.7-2.2-3.1-3.7-4
		S541.3,81.3,539.1,81.3z"/>
</g>
<g>
	<path class="st0" d="M212.1,151.5c4.9,0,7.7,2.4,7.7,6.6c0,4.4-2.8,6.9-7.7,6.9H207v6.2h-2.2v-19.7H212.1z M207,162.8h5.1
		c3.5,0,5.6-1.6,5.6-4.6s-2-4.5-5.6-4.5H207V162.8z"/>
	<path class="st0" d="M237.9,164.9c-0.4,0-0.9,0.1-1.3,0.1h-5.2v6.2h-2.2v-19.7h7.5c4.9,0,7.8,2.4,7.8,6.6c0,3.3-1.6,5.4-4.4,6.4
		l4.6,6.7H242L237.9,164.9z M236.6,162.8c3.6,0,5.6-1.6,5.6-4.6s-2-4.5-5.6-4.5h-5.2v9.1H236.6z"/>
	<path class="st0" d="M257.3,153.7v6.5h9.9v2.2h-9.9v6.7h11.5v2.1H255v-19.7h13.3v2.2H257.3z"/>
	<path class="st0" d="M295,163.1c0,5.1-3.1,8.2-8.2,8.2c-5.2,0-8.3-3.1-8.3-8.2v-11.6h2.2v11.6c0,3.8,2.3,6,6,6s6-2.2,6-6v-11.6h2.2
		L295,163.1L295,163.1z"/>
	<path class="st0" d="M320.2,171.2l-11.8-15.8v15.8h-2.2v-19.7h2.3l11.8,15.8v-15.8h2.2v19.7H320.2z"/>
	<path class="st0" d="M334.1,171.2v-19.7h2.2v19.7H334.1z"/>
	<path class="st0" d="M353,171.2l-8-19.7h2.4l6.8,17.1l6.8-17.1h2.4l-8,19.7H353z"/>
	<path class="st0" d="M374.4,153.7v6.5h9.9v2.2h-9.9v6.7h11.5v2.1h-13.7v-19.7h13.3v2.2H374.4z"/>
	<path class="st0" d="M404.9,164.9c-0.4,0-0.9,0.1-1.3,0.1h-5.2v6.2h-2.2v-19.7h7.5c4.9,0,7.8,2.4,7.8,6.6c0,3.3-1.6,5.4-4.4,6.4
		l4.6,6.7h-2.6L404.9,164.9z M403.5,162.8c3.6,0,5.6-1.6,5.6-4.6s-2-4.5-5.6-4.5h-5.2v9.1H403.5z"/>
	<path class="st0" d="M434.1,153.3l-1,2.1c-1.8-1.2-3.8-1.7-5.4-1.7c-2.5,0-4.2,1-4.2,2.6c0,5.1,11.1,2.4,11,9.6
		c0,3.3-2.9,5.4-7.1,5.4c-2.9,0-5.7-1.2-7.5-3l1-2c1.8,1.8,4.3,2.8,6.5,2.8c2.8,0,4.6-1.2,4.6-3c0-5.2-11-2.4-11-9.5
		c0-3.1,2.7-5.1,6.8-5.1C430.1,151.4,432.4,152.2,434.1,153.3z"/>
	<path class="st0" d="M444.7,171.2v-19.7h2.2v19.7H444.7z"/>
	<path class="st0" d="M464.5,153.7v17.5h-2.2v-17.5h-6.4v-2.2H471v2.2H464.5z"/>
	<path class="st0" d="M479.7,166.2l-2.2,5h-2.4l8.8-19.7h2.3l8.8,19.7h-2.4l-2.2-5H479.7z M485.1,154.1l-4.4,10h8.8L485.1,154.1z"/>
	<path class="st0" d="M512.6,164.9c-0.4,0-0.9,0.1-1.3,0.1H506v6.2h-2.2v-19.7h7.5c4.9,0,7.8,2.4,7.8,6.6c0,3.3-1.6,5.4-4.4,6.4
		l4.6,6.7h-2.6L512.6,164.9z M511.3,162.8c3.6,0,5.6-1.6,5.6-4.6s-2-4.5-5.6-4.5H506v9.1H511.3z"/>
	<path class="st0" d="M529.7,171.2v-19.7h2.2v19.7H529.7z"/>
	<path class="st0" d="M562.3,161.3c0,5.5-4.5,9.9-10.3,9.9s-10.3-4.4-10.3-9.9c0-5.6,4.6-9.9,10.3-9.9
		C557.7,151.5,562.3,155.8,562.3,161.3z M543.9,161.3c0,4.3,3.7,7.8,8,7.8c4.4,0,8-3.5,8-7.8s-3.6-7.8-8-7.8
		C547.6,153.6,543.9,157,543.9,161.3z"/>
</g>
<path class="st0" d="M33,59.4v64c0,13.9,11.2,25.1,25.1,25.1h71l18.9,22.8v-22.8h3.5c13.9,0,25.1-11.2,25.1-25.1v-64
	c0-13.9-11.2-25.1-25.1-25.1H58.1C44.3,34.3,33,45.5,33,59.4z M50.1,52h109.5v78.8H50.1V52z"/>
<g>
	<path class="st0" d="M204.7,27.6h3.9v17.5h-3.9V27.6z"/>
	<path class="st0" d="M219.4,38.7l4.5-11.1h4.2l-7,17.5h-3.3l-7-17.5h4.2L219.4,38.7z"/>
	<path class="st0" d="M236.8,45.1V27.6h3.9v14h7.5v3.5H236.8z"/>
	<path class="st0" d="M251,27.6h3.9v17.5H251V27.6z"/>
	<path class="st0" d="M270.5,36.2h3.9v6.2c-1.7,1.9-4.1,2.9-7.2,2.9c-2.6,0-4.7-0.9-6.5-2.6c-1.7-1.7-2.6-3.8-2.6-6.4
		c0-2.6,0.9-4.8,2.7-6.5s3.9-2.6,6.4-2.6s4.7,0.8,6.5,2.5l-2,2.9c-0.8-0.7-1.5-1.2-2.2-1.4c-0.7-0.3-1.4-0.4-2.1-0.4
		c-1.5,0-2.7,0.5-3.8,1.5c-1,1-1.5,2.3-1.5,4s0.5,3,1.5,4s2.1,1.5,3.5,1.5s2.5-0.3,3.4-0.8L270.5,36.2L270.5,36.2z"/>
	<path class="st0" d="M290.2,45.1l-1.6-3.8h-7.3l-1.6,3.8h-4.2l7.6-17.5h3.8l7.6,17.5H290.2z M285,32.8l-2.2,5.1h4.4L285,32.8z"/>
	<path class="st0" d="M316.4,29.9c1.7,1.5,2.5,3.6,2.5,6.4c0,2.7-0.8,4.9-2.4,6.5s-4.1,2.4-7.4,2.4h-6V27.6h6.2
		C312.3,27.6,314.7,28.4,316.4,29.9z M313.5,40.3c1-0.9,1.4-2.2,1.4-3.9s-0.5-3-1.4-4c-1-0.9-2.4-1.4-4.4-1.4h-2.2v10.6h2.5
		C311.2,41.6,312.6,41.2,313.5,40.3z"/>
	<path class="st0" d="M334.9,27.6v3.5h-8.7v3.6h7.8V38h-7.8v3.6h9v3.5h-12.9V27.6H334.9z"/>
</g>
</svg>
