<?xml version="1.0" encoding="utf-8"?>
<!-- Generator: Adobe Illustrator 22.0.0, SVG Export Plug-In . SVG Version: 6.00 Build 0)  -->
<svg version="1.1" id="Layer_1" xmlns="http://www.w3.org/2000/svg" xmlns:xlink="http://www.w3.org/1999/xlink" x="0px" y="0px"
	 viewBox="0 0 352.3 114.6" style="enable-background:new 0 0 352.3 114.6;" xml:space="preserve">
<style type="text/css">
	.st0{fill-rule:evenodd;clip-rule:evenodd;fill:#FFFFFF;}
	.st1{fill:#FFFFFF;}
</style>
<path class="st0" d="M10.9,8h16.6l1.2,0.5l1.2,0.6l1.1,0.6l1.1,0.6l1.1,0.7l1.1,0.7l1.1,0.7l1.1,0.7l1,0.8l1,0.8l1,0.8l1,0.8l1,0.8
	l1,0.9l0.9,0.9l0.9,0.9l0.9,1l0.9,1l0.9,1l0.9,1.1l0.8,1.1l0.8,1.1l0.8,1.1l0.8,1.1l0.7,1.1l0.7,1.2l0.7,1.2l0.7,1.2l0.6,1.2
	l0.6,1.2l0.6,1.2l0.6,1.3l0.5,1.3l0.5,1.3l0.5,1.3l0.4,1.3l0.4,1.4l0.4,1.4l0.3,1.4l0.3,1.4l0.3,1.4l0.2,1.4l0.2,1.4l0.2,1.4
	l0.1,1.4l0.1,1.4l0.1,1.5v1.5v1.5l-0.1,1.5l-0.1,1.4L60,65.7l-0.2,1.4l-0.2,1.4L59.5,70l-0.3,1.4l-0.3,1.4l-0.3,1.4l-0.4,1.4
	l-0.4,1.4l-0.4,1.3L57,79.5l-0.5,1.3L56,82l-0.6,1.3l-0.6,1.2l-0.6,1.2L53.6,87L53,88.2l-0.7,1.2l-0.7,1.2l-0.7,1.1l-0.8,1.1
	l-0.8,1.1L48.5,95l-0.8,1.1l-0.9,1.1l-0.9,1l-0.9,1l-0.9,1l-0.9,0.9l-0.9,0.9l-1,0.9l-1,0.8l-1,0.8l-1,0.8l-1,0.8l-1,0.8l-1.1,0.7
	l-1.1,0.7l-1.1,0.7l-1.1,0.7l-1.1,0.6l-1.1,0.6l-1.2,0.6l-1.2,0.5H10.9v-0.2l2.3-0.3l2.3-0.5l2.3-0.6l2.2-0.6l2.2-0.8l2.1-0.8l2.1-1
	l2-1l2-1.1l1.9-1.2l1.9-1.3l1.8-1.4l1.8-1.5l1.7-1.5l1.6-1.6l1.5-1.7l1.5-1.8l1.4-1.8l1.3-1.9l1.2-1.9l1.2-2l1.1-2.1l1-2.1l0.9-2.2
	l0.8-2.2l0.7-2.3l0.6-2.3l0.5-2.4l0.4-2.4l0.3-2.4l0.2-2.5l0.1-2.5l-0.1-2.5L55.5,55l-0.3-2.4l-0.4-2.4l-0.5-2.4l-0.6-2.3L53,43.2
	L52.2,41l-0.9-2.2l-1-2.1l-1.1-2.1l-1.2-2l-1.2-1.9l-1.3-1.9l-1.4-1.8l-1.5-1.8l-1.5-1.7l-1.6-1.6l-1.7-1.5l-1.8-1.5l-1.8-1.4
	l-1.9-1.3l-1.9-1.2l-2-1.1l-2-1l-2.1-1L22.2,11L20,10.2l-2.2-0.6L15.5,9l-2.3-0.5l-2.3-0.3V8L10.9,8z M38.5,8H48l1,0.9l1,0.9l1,1
	l1,1l1.1,1.2l1.1,1.2l1,1.2l1,1.2l1,1.3l1,1.3l1,1.3l0.9,1.4l0.9,1.4l0.9,1.4l0.8,1.4l0.8,1.4l0.7,1.5l0.7,1.5l0.7,1.5l0.6,1.5
	l0.6,1.5l0.6,1.5l0.5,1.6l0.5,1.6l0.5,1.6l0.4,1.6l0.4,1.6l0.4,1.6l0.3,1.7l0.3,1.7l0.2,1.7L71,53l0.2,1.7l0.1,1.7l0.1,1.8l0,1.8
	l0,1.8l-0.1,1.8l-0.1,1.7L71,66.9l-0.2,1.7l-0.2,1.7L70.3,72L70,73.7l-0.4,1.6L69.3,77l-0.4,1.6l-0.5,1.6l-0.5,1.6l-0.5,1.6
	l-0.6,1.5l-0.6,1.5L65.5,88l-0.7,1.5L64.1,91l-0.7,1.5l-0.8,1.4l-0.8,1.4l-0.9,1.4L60,98l-0.9,1.4l-1,1.3l-1,1.3l-1,1.3l-1,1.2
	l-1,1.2L53,107l-1.1,1.2l-1,1l-1,1l-1,0.9l-1,0.9h-9.5l1.3-0.9l1.2-0.9l1.2-1l1.2-1l1.2-1l1.1-1l1.1-1.1l1.1-1.1l1-1.1l1-1.1l1-1.1
	l1-1.1l0.9-1.2l0.9-1.2l0.9-1.2l0.8-1.2l0.8-1.2l0.8-1.3l0.7-1.3l0.7-1.3l0.7-1.4l0.7-1.3l0.6-1.4l0.6-1.4l0.6-1.4l0.5-1.4l0.5-1.4
	l0.5-1.5l0.4-1.5l0.4-1.5l0.4-1.5l0.3-1.5l0.3-1.5l0.2-1.5l0.2-1.6l0.2-1.6l0.2-1.6l0.1-1.6l0.1-1.6l0-1.6l0-1.6l-0.1-1.6l-0.1-1.6
	l-0.2-1.6L65.2,52L65,50.4l-0.2-1.5l-0.3-1.5l-0.3-1.5l-0.4-1.5l-0.4-1.5l-0.4-1.5L62.5,40L62,38.5l-0.5-1.4l-0.6-1.4l-0.6-1.4
	l-0.6-1.4L59,31.6l-0.7-1.4l-0.7-1.3l-0.7-1.3l-0.8-1.3l-0.8-1.2l-0.8-1.2l-0.9-1.2l-0.9-1.2l-0.9-1.2l-1-1.1l-1-1.1l-1-1.1l-1-1.1
	l-1.1-1.1l-1.1-1.1l-1.1-1l-1.2-1l-1.2-1l-1.2-1l-1.2-0.9L38.5,8L38.5,8z M56.8,8h10.1l1,1.3l1,1.4l1,1.4l1,1.4l0.9,1.4l0.9,1.4
	l0.9,1.5l0.9,1.5l0.8,1.5l0.8,1.5l0.8,1.5l0.7,1.6l0.7,1.6l0.7,1.6l0.6,1.6l0.6,1.6l0.6,1.6l0.5,1.7l0.5,1.7l0.5,1.7l0.4,1.7L83,42
	l0.3,1.8l0.3,1.8l0.3,1.8l0.2,1.8l0.2,1.8l0.2,1.8l0.1,1.8l0.1,1.8l0.1,1.8l0,1.8l0,1.9l-0.1,1.8l-0.1,1.8l-0.1,1.8l-0.2,1.8
	l-0.2,1.8L84,72.6l-0.3,1.8l-0.3,1.8L83,77.9l-0.4,1.7l-0.4,1.7L81.7,83l-0.5,1.7l-0.5,1.7L80.1,88l-0.6,1.6l-0.6,1.6l-0.7,1.6
	l-0.7,1.6L76.8,96l-0.8,1.5l-0.8,1.5l-0.8,1.5l-0.9,1.5l-0.9,1.5l-0.9,1.4l-0.9,1.4l-1,1.4l-1,1.4l-1,1.4l-1,1.3H56.8l1.2-1.3
	l1.2-1.3l1.1-1.3l1.1-1.4l1.1-1.4l1-1.4l1-1.4l1-1.5l0.9-1.5l0.9-1.5l0.9-1.5l0.8-1.6l0.8-1.6l0.7-1.6l0.7-1.6l0.7-1.6l0.7-1.6
	l0.6-1.7l0.6-1.7l0.5-1.7l0.5-1.8l0.5-1.7l0.4-1.8l0.4-1.8l0.3-1.8l0.3-1.8l0.2-1.8l0.2-1.9l0.2-1.8l0.1-1.9l0.1-1.9l0-1.9l0-1.9
	l-0.1-1.9l-0.1-1.9L77,52.5l-0.2-1.9l-0.2-1.8L76.3,47L76,45.2l-0.4-1.8l-0.4-1.8l-0.5-1.7l-0.5-1.8l-0.5-1.7l-0.6-1.7l-0.6-1.7
	l-0.7-1.7l-0.7-1.6l-0.7-1.6l-0.7-1.6L68.9,25l-0.8-1.6l-0.9-1.5l-0.9-1.5l-0.9-1.5l-1-1.5l-1-1.4l-1-1.4l-1.1-1.4l-1.1-1.4
	l-1.1-1.3L58,9.3L56.8,8L56.8,8z M75.4,8h30.7v103.9H75.4l0.9-1.4l0.9-1.4l0.9-1.4l0.9-1.4l0.8-1.5l0.8-1.5l0.8-1.5l0.8-1.5l0.7-1.5
	l0.7-1.5l0.7-1.6l0.7-1.6l0.6-1.6l0.6-1.6l0.6-1.6l0.5-1.6l0.5-1.6l0.5-1.7l0.5-1.7l0.4-1.7l0.4-1.7l0.4-1.7l0.3-1.7l0.3-1.7
	l0.2-1.8l0.2-1.8l0.2-1.8l0.2-1.8l0.1-1.8l0.1-1.8l0.1-1.8l0-1.8l0-1.8l-0.1-1.8l-0.1-1.8l-0.1-1.8L91.3,51l-0.2-1.8l-0.2-1.8
	l-0.2-1.8L90.3,44L90,42.2l-0.4-1.7l-0.4-1.7l-0.4-1.7l-0.5-1.7l-0.5-1.7l-0.5-1.6l-0.5-1.6l-0.6-1.6l-0.6-1.6l-0.6-1.6l-0.7-1.6
	l-0.7-1.6L83,21.1l-0.7-1.5L81.5,18l-0.8-1.5l-0.8-1.5l-0.8-1.5l-0.9-1.4l-0.9-1.4l-0.9-1.4L75.4,8L75.4,8z M5,107.3v-4.2l0,0l1.1,0
	l1.1-0.1l1.1-0.1l1.1-0.1l1.1-0.1l1-0.2l1-0.2l1-0.2l1-0.2l1-0.3l1-0.3l1-0.3l1-0.3l1-0.3l1-0.4l0.9-0.4l1-0.4l0.9-0.5l0.9-0.5
	l0.9-0.5l0.9-0.5l0.9-0.5l0.9-0.5l0.9-0.6l0.8-0.6l0.8-0.6l0.8-0.6l0.8-0.6l0.8-0.7l0.7-0.7l0.7-0.7l0.7-0.7l0.7-0.7l0.7-0.8
	l0.7-0.8l0.7-0.8l0.6-0.8l0.6-0.8l0.6-0.8l0.6-0.9l0.6-0.8l0.5-0.9l0.5-0.9l0.5-0.9l0.5-0.9l0.5-0.9l0.4-1l0.4-1l0.4-1l0.4-1l0.3-1
	l0.3-1l0.3-1l0.3-1l0.2-1l0.2-1l0.2-1.1l0.2-1.1l0.2-1.1l0.1-1.1l0.1-1.1l0.1-1.1l0-1.1l0-1.1l0-1.1l0-1.1l-0.1-1.1l-0.1-1.1
	l-0.1-1.1l-0.2-1.1l-0.2-1.1l-0.2-1.1l-0.2-1l-0.2-1l-0.3-1l-0.3-1l-0.3-1l-0.3-1l-0.4-1l-0.4-1l-0.4-1l-0.4-1l-0.5-0.9l-0.5-0.9
	l-0.5-0.9l-0.5-0.9l-0.5-0.9l-0.6-0.8L39.2,35l-0.6-0.8l-0.6-0.8l-0.6-0.8l-0.7-0.8l-0.7-0.8l-0.7-0.8l-0.7-0.7L34,28.7L33.2,28
	l-0.7-0.7l-0.8-0.7L30.9,26l-0.8-0.6l-0.8-0.6l-0.8-0.6l-0.9-0.6l-0.9-0.5l-0.9-0.5L25,22l-0.9-0.5l-0.9-0.5l-0.9-0.5l-1-0.4
	l-0.9-0.4l-1-0.4l-1-0.3l-1-0.3l-1-0.3l-1-0.3l-1-0.3l-1-0.2l-1-0.2l-1-0.2l-1-0.2L9.3,17l-1.1-0.1l-1.1-0.1l-1.1-0.1l-1.1,0l0,0
	v-4.2l0,0l2.4,0.1l2.3,0.2l2.3,0.3l2.3,0.4l2.2,0.5l2.2,0.6l2.1,0.7l2.1,0.8l2,1l2,1l1.9,1.1l1.9,1.2l1.8,1.3l1.8,1.4l1.7,1.5
	l1.6,1.6l1.5,1.6l1.5,1.7l1.4,1.8l1.3,1.9l1.2,1.9l1.1,2l1,2l0.9,2.1l0.8,2.2l0.7,2.2l0.6,2.2l0.5,2.3l0.4,2.3l0.3,2.4l0.2,2.4
	l0.1,2.4L51,62.4l-0.2,2.4l-0.3,2.4l-0.4,2.3l-0.5,2.3L49,74l-0.7,2.2l-0.8,2.2l-0.9,2.1l-1,2l-1.1,2l-1.2,1.9l-1.3,1.9L40.5,90
	l-1.5,1.7l-1.5,1.6L36,95l-1.7,1.5l-1.8,1.4l-1.8,1.3l-1.9,1.2l-1.9,1.1l-2,1l-2,1l-2.1,0.8l-2.1,0.7l-2.2,0.6l-2.2,0.5l-2.3,0.4
	L9.7,107l-2.3,0.2L5,107.3L5,107.3L5,107.3z M5,99v-3.9l0,0l0.9,0l0.9,0l0.9-0.1L8.5,95l0.9-0.1l0.9-0.1l0.9-0.1l0.8-0.2l0.9-0.2
	l0.8-0.2l0.8-0.2l0.8-0.2l0.8-0.3l0.8-0.3l0.8-0.3l0.8-0.3l0.7-0.3l0.8-0.3l0.7-0.4l0.7-0.4l0.7-0.4l0.7-0.4l0.7-0.5l0.7-0.5
	l0.7-0.5l0.7-0.5l0.7-0.5l0.6-0.5l0.6-0.6l0.6-0.6l0.6-0.6l0.6-0.6l0.6-0.6l0.6-0.6l0.6-0.6l0.5-0.6l0.5-0.7l0.5-0.7l0.5-0.7
	l0.5-0.7l0.5-0.7l0.5-0.7l0.4-0.7l0.4-0.7l0.4-0.8l0.3-0.8l0.4-0.8l0.3-0.8l0.3-0.8l0.3-0.8l0.3-0.8l0.3-0.8l0.2-0.8l0.2-0.8
	l0.2-0.8l0.2-0.8l0.2-0.9l0.1-0.9l0.1-0.9l0.1-0.9l0.1-0.9l0.1-0.9l0-0.9l0-0.9l0-0.9l0-0.9l-0.1-0.9l-0.1-0.9L39,55.5l-0.1-0.9
	l-0.1-0.9l-0.2-0.9L38.4,52l-0.2-0.8L38,50.3l-0.2-0.8l-0.3-0.8l-0.3-0.8L36.9,47l-0.3-0.8l-0.3-0.8l-0.4-0.8l-0.3-0.8l-0.4-0.8
	l-0.4-0.7l-0.4-0.7L33.9,41l-0.5-0.7L33,39.6l-0.5-0.7L32,38.2l-0.5-0.7l-0.5-0.6l-0.6-0.6l-0.6-0.6L29.3,35l-0.6-0.6l-0.6-0.6
	l-0.6-0.6l-0.6-0.6l-0.6-0.5l-0.7-0.5l-0.7-0.5l-0.7-0.5l-0.7-0.5l-0.7-0.5l-0.7-0.4L21.3,29l-0.7-0.4l-0.7-0.4l-0.8-0.3l-0.7-0.3
	l-0.8-0.3l-0.8-0.3L16,26.6l-0.8-0.3l-0.8-0.2l-0.8-0.2l-0.8-0.2l-0.9-0.2l-0.8-0.2l-0.9-0.1L9.4,25l-0.9-0.1l-0.9-0.1l-0.9-0.1
	l-0.9,0l-0.9,0l0,0v-3.9l0,0h1l1,0.1l1,0.1l1,0.1l1,0.1l1,0.1l0.9,0.2l0.9,0.2l0.9,0.2l0.9,0.2l0.9,0.3l0.9,0.3l0.9,0.3l0.9,0.3
	l0.9,0.3l0.9,0.4l0.9,0.4l0.9,0.4l0.8,0.4l0.8,0.5L24,26l0.8,0.5l0.8,0.5l0.8,0.5l0.7,0.6l0.7,0.5l0.7,0.6l0.7,0.6l0.7,0.6l0.7,0.6
	l0.7,0.6l0.7,0.7l0.6,0.7l0.6,0.7l0.6,0.7l0.6,0.7l0.6,0.7l0.6,0.7l0.5,0.8l0.5,0.8l0.5,0.8l0.5,0.8l0.5,0.8l0.4,0.8l0.5,0.8
	l0.4,0.8l0.4,0.8l0.4,0.9l0.3,0.9l0.3,0.9l0.3,0.9l0.3,0.9l0.3,0.9l0.2,0.9l0.2,1l0.2,1l0.2,1l0.2,1l0.1,1l0.1,1l0.1,1l0.1,1l0,1v1
	v1l0,1L43,63l-0.1,1l-0.1,1l-0.1,1l-0.2,1l-0.2,1l-0.2,1l-0.2,1l-0.2,0.9l-0.3,0.9l-0.3,0.9l-0.3,0.9l-0.3,0.9l-0.3,0.9L39.7,76
	l-0.4,0.8l-0.4,0.8l-0.5,0.8l-0.4,0.8l-0.5,0.8L37.1,81l-0.5,0.8l-0.5,0.8l-0.5,0.8L35,84.1l-0.6,0.7l-0.6,0.7l-0.6,0.7l-0.6,0.7
	l-0.6,0.7l-0.7,0.7l-0.7,0.6l-0.7,0.6l-0.7,0.6l-0.7,0.6l-0.7,0.6l-0.7,0.5l-0.7,0.6l-0.8,0.5l-0.8,0.5L24,93.9l-0.8,0.5l-0.8,0.5
	l-0.8,0.4l-0.9,0.4L19.8,96L19,96.3l-0.9,0.3L17.2,97l-0.9,0.3l-0.9,0.3l-0.9,0.3l-0.9,0.2l-0.9,0.2l-0.9,0.2l-0.9,0.2l-1,0.1
	l-1,0.1l-1,0.1L7,99L6,99H5L5,99L5,99z M5,91.9V88l0,0L6.4,88l1.4-0.1l1.4-0.2l1.4-0.2l1.3-0.3l1.3-0.4l1.2-0.5l1.2-0.5l1.2-0.6
	l1.2-0.6l1.1-0.7l1.1-0.7l1.1-0.8l1-0.8l1-0.9l0.9-0.9l0.9-1l0.9-1l0.8-1.1l0.8-1.1l0.7-1.1l0.7-1.2l0.6-1.2l0.6-1.2l0.5-1.3
	l0.5-1.3l0.4-1.3l0.3-1.4l0.2-1.4l0.2-1.4l0.1-1.4l0-1.4l0-1.5l-0.1-1.4L32,55.6l-0.2-1.4l-0.3-1.4l-0.4-1.3l-0.5-1.3L30.2,49
	l-0.6-1.2l-0.6-1.2l-0.7-1.2l-0.7-1.1l-0.8-1.1l-0.8-1l-0.9-1l-0.9-1l-0.9-0.9l-1-0.9l-1-0.8l-1.1-0.8l-1.1-0.7L18,35.2l-1.2-0.6
	l-1.2-0.6l-1.2-0.5l-1.2-0.5l-1.3-0.4l-1.3-0.3l-1.4-0.2L7.8,32l-1.4-0.1L5,31.8l0,0V28l0,0l0.8,0l0.8,0l0.8,0.1l0.8,0.1L9,28.3
	l0.8,0.1l0.7,0.1l0.8,0.2l0.8,0.2l0.7,0.2l0.7,0.2l0.7,0.2l0.7,0.2l0.7,0.3l0.7,0.3l0.7,0.3l0.7,0.3l0.7,0.3l0.7,0.3l0.7,0.3
	l0.7,0.4l0.6,0.4l0.6,0.4l0.6,0.4l0.6,0.4l0.6,0.5l0.6,0.5l0.6,0.5l0.6,0.5l0.6,0.5l0.6,0.5l0.5,0.5l0.5,0.6l0.5,0.6l0.5,0.6
	l0.5,0.6l0.5,0.6l0.5,0.6l0.4,0.6l0.4,0.6l0.4,0.7l0.4,0.6L32,44l0.4,0.7l0.3,0.7l0.3,0.7l0.3,0.7l0.3,0.7l0.3,0.7l0.3,0.7l0.3,0.7
	l0.2,0.7l0.2,0.7l0.2,0.8l0.2,0.8l0.2,0.8l0.1,0.8l0.1,0.8l0.1,0.8l0.1,0.8l0.1,0.8l0.1,0.8l0,0.8v0.8v0.8l0,0.8L36,62.4l-0.1,0.8
	L35.8,64l-0.1,0.8l-0.1,0.8l-0.1,0.8l-0.2,0.8l-0.2,0.8l-0.2,0.8l-0.2,0.7l-0.2,0.7l-0.3,0.7l-0.3,0.7l-0.3,0.7l-0.3,0.7L33,73.8
	l-0.3,0.7l-0.3,0.7L32,75.8l-0.4,0.7l-0.4,0.6l-0.4,0.7l-0.4,0.6L29.9,79l-0.5,0.6L29,80.2l-0.5,0.6L28,81.4L27.5,82L27,82.5
	l-0.5,0.5l-0.6,0.5l-0.6,0.5l-0.6,0.5L24.2,85l-0.6,0.5L23,86l-0.6,0.4l-0.6,0.4l-0.6,0.4l-0.6,0.4L19.8,88l-0.7,0.3l-0.7,0.3
	l-0.7,0.3l-0.7,0.3l-0.7,0.3l-0.7,0.3L15,90.2l-0.7,0.2l-0.7,0.2l-0.7,0.2L12,91.1l-0.8,0.2l-0.8,0.2l-0.7,0.1L9,91.6l-0.8,0.1
	l-0.8,0.1l-0.8,0.1l-0.8,0L5,91.9L5,91.9L5,91.9z M5,85.5V34.4l0,0l1.3,0l1.2,0.1l1.2,0.2l1.2,0.2l1.2,0.3l1.2,0.3l1.1,0.4l1.1,0.5
	l1.1,0.5l1.1,0.6l1,0.6l1,0.7l1,0.7l1,0.7l0.9,0.8l0.9,0.8l0.8,0.9l0.8,0.9l0.7,1l0.7,1l0.7,1l0.6,1.1l0.6,1.1l0.5,1.1l0.5,1.2
	l0.4,1.2l0.3,1.2l0.3,1.2l0.2,1.2l0.2,1.3l0.1,1.3l0,1.3l0,1.3l-0.1,1.3l-0.2,1.3l-0.2,1.2l-0.3,1.2l-0.3,1.2l-0.4,1.2l-0.5,1.2
	L27.4,71l-0.6,1.1l-0.6,1.1l-0.7,1l-0.7,1l-0.7,1l-0.8,0.9L22.6,78l-0.9,0.8l-0.9,0.8l-1,0.7l-1,0.7l-1,0.7l-1,0.6L15.8,83l-1.1,0.5
	l-1.1,0.5l-1.1,0.4l-1.2,0.3L10,85l-1.2,0.2l-1.2,0.2l-1.2,0.1L5,85.5L5,85.5L5,85.5z"/>
<path class="st1" d="M150.9,40.6h7.7V42v1.1l-0.1,1l-0.1,1l-0.1,0.9l-0.1,0.8l-0.1,0.8l-0.2,0.8l-0.2,0.7l-0.2,0.7l-0.2,0.6
	l-0.3,0.6l-0.3,0.5l-0.3,0.5l-0.3,0.5l-0.3,0.4l-0.4,0.3l-0.4,0.3l-0.5,0.3l-0.5,0.3l-0.6,0.2l-0.6,0.2l-0.7,0.2l-0.7,0.2l-0.8,0.2
	l-0.9,0.2l-0.9,0.1l-1,0.1l-1,0.1l-1.1,0.1l-1.2,0.1l-1.2,0h-1.3l-1.5,0l-1.4,0l-1.3-0.1l-1.2-0.1l-1.2-0.2l-1.1-0.2l-1-0.2l-1-0.2
	l-0.9-0.3l-0.8-0.3l-0.4-0.2l-0.3-0.2l-0.3-0.2l-0.3-0.2l-0.3-0.2l-0.3-0.2l-0.3-0.2l-0.3-0.2l-0.2-0.2l-0.2-0.2l-0.2-0.2l-0.2-0.2
	l-0.2-0.3l-0.2-0.3l-0.2-0.3l-0.1-0.3l-0.2-0.4l-0.1-0.4l-0.2-0.4l-0.1-0.5l-0.3-1l-0.2-1.1l-0.2-1.2l-0.2-1.3l-0.2-1.4l-0.1-1.5
	l-0.1-1.6l-0.1-1.7l-0.1-1.8l-0.1-1.9l0-2l0-2.1l0-1.2l0-1.2l0.1-1.1l0.1-1.1l0.1-1l0.2-1l0.2-0.9l0.2-0.9l0.3-0.8l0.3-0.8l0.3-0.7
	l0.3-0.6l0.2-0.3l0.2-0.3l0.2-0.3l0.2-0.3l0.2-0.3l0.2-0.2l0.2-0.2l0.2-0.2l0.2-0.2l0.3-0.2l0.3-0.2l0.3-0.2l0.6-0.3l0.7-0.3
	l0.8-0.3l0.8-0.3l0.9-0.2l0.9-0.2l1-0.2l1.1-0.2l1.1-0.1l1.2-0.1l1.3-0.1l1.3-0.1l1.4-0.1h1.5h1.1l1,0.1l1,0l0.9,0.1l0.9,0.1
	l0.9,0.1l0.8,0.1l0.7,0.2l0.7,0.2l0.7,0.2l0.6,0.2l0.6,0.2l0.5,0.3l0.5,0.3l0.5,0.3l0.4,0.3l0.3,0.4l0.3,0.4l0.3,0.5l0.3,0.5
	l0.3,0.5l0.2,0.6l0.2,0.6l0.2,0.6l0.2,0.7l0.1,0.7l0.1,0.8l0.1,0.8l0.1,0.8l0.1,0.9l0,0.9l0,1l0,0.9h-7.7v-1.1v-1l-0.1-0.9l-0.1-0.4
	l-0.1-0.4l-0.1-0.4l-0.1-0.3l-0.1-0.3l-0.1-0.3l-0.1-0.3l-0.1-0.2l-0.2-0.2l-0.2-0.2l-0.2-0.2l-0.2-0.1l-0.2-0.2l-0.2-0.1l-0.3-0.1
	l-0.3-0.1l-0.3-0.1l-0.3-0.1l-0.4-0.1l-0.4-0.1l-0.9-0.1l-1-0.1l-1.1-0.1h-1.3h-0.9l-0.8,0l-0.8,0l-0.7,0.1l-0.7,0.1l-0.7,0.1
	l-0.6,0.1l-0.6,0.1l-0.5,0.1l-0.5,0.1l-0.4,0.2l-0.4,0.2l-0.3,0.2l-0.3,0.2l-0.3,0.2l-0.2,0.2l-0.2,0.3l-0.2,0.3l-0.2,0.4l-0.1,0.4
	l-0.1,0.5l-0.1,0.5l-0.1,0.6l-0.1,0.6l-0.1,0.7l-0.1,0.7l-0.1,0.8l-0.1,0.8l-0.1,1.9l0,2.1v2.8l0.1,2.5l0,1.1l0.1,1.1l0.1,1l0.1,0.9
	l0.1,0.8l0.1,0.8l0.1,0.7l0.1,0.6l0.1,0.5l0.1,0.5l0.1,0.4l0.2,0.3l0.2,0.3l0.2,0.2l0.3,0.2l0.3,0.2l0.4,0.2l0.4,0.2l0.5,0.2
	l0.5,0.2l0.6,0.1l0.6,0.1l0.6,0.1l0.7,0.1l0.7,0.1l0.8,0l0.8,0h0.9h1.4l1.2-0.1l1.1-0.1l1-0.1l0.5-0.1l0.4-0.1l0.4-0.1l0.3-0.1
	l0.3-0.1l0.3-0.1l0.2-0.1l0.2-0.1l0.2-0.2l0.2-0.2l0.2-0.2L150,47l0.2-0.3l0.1-0.3l0.1-0.3l0.1-0.3l0.1-0.3l0.1-0.4l0.1-0.4l0.1-0.4
	l0.1-0.5l0-0.5l0-0.5v-0.5L150.9,40.6L150.9,40.6z M261.2,20.5v10.7h19V37h-19v11.7h20.2v6.6h-27.9V13.8h27.7v6.6H261.2L261.2,20.5z
	 M240,46.4h-16.8l-2.8,9h-8.1l13.4-41.6h11.6l13.7,41.6h-8L240,46.4L240,46.4z M238.2,40.6l-6.7-20.6L225,40.6H238.2L238.2,40.6z
	 M203.3,40.6h7.7V42v1.1l-0.1,1l-0.1,1l-0.1,0.9l-0.1,0.8l-0.1,0.8l-0.2,0.8l-0.2,0.7l-0.2,0.7l-0.2,0.6l-0.3,0.6l-0.3,0.5l-0.3,0.5
	l-0.3,0.5l-0.3,0.4l-0.4,0.3l-0.4,0.3l-0.5,0.3l-0.5,0.3l-0.6,0.2l-0.6,0.2l-0.7,0.2l-0.7,0.2l-0.8,0.2l-0.9,0.2l-0.9,0.1l-1,0.1
	l-1,0.1l-1.1,0.1l-1.2,0.1l-1.2,0h-1.3l-1.5,0l-1.4,0l-1.3-0.1l-1.2-0.1l-1.2-0.2l-1.1-0.2l-1-0.2l-1-0.2l-0.9-0.3l-0.8-0.3
	l-0.4-0.2l-0.3-0.2l-0.3-0.2l-0.3-0.2l-0.3-0.2l-0.3-0.2l-0.3-0.2l-0.3-0.2l-0.2-0.2l-0.2-0.2l-0.2-0.2l-0.2-0.2l-0.2-0.3l-0.2-0.3
	l-0.2-0.3l-0.1-0.3l-0.2-0.4l-0.1-0.4l-0.2-0.4l-0.1-0.5l-0.3-1l-0.2-1.1l-0.2-1.2l-0.2-1.3l-0.2-1.4l-0.1-1.5l-0.1-1.6l-0.1-1.7
	l-0.1-1.8l-0.1-1.9l0-2l0-2.1l0-1.2l0-1.2l0.1-1.1l0.1-1.1l0.1-1l0.2-1l0.2-0.9l0.2-0.9l0.3-0.8l0.3-0.8l0.3-0.7l0.3-0.6l0.2-0.3
	l0.2-0.3l0.2-0.3l0.2-0.3l0.2-0.3l0.2-0.2l0.2-0.2l0.2-0.2l0.2-0.2l0.3-0.2l0.3-0.2l0.3-0.2l0.6-0.3l0.7-0.3l0.8-0.3l0.8-0.3
	l0.9-0.2l0.9-0.2l1-0.2l1.1-0.2l1.1-0.1l1.2-0.1l1.3-0.1l1.3-0.1l1.4-0.1h1.5h1.1l1,0.1l1,0l0.9,0.1l0.9,0.1l0.9,0.1l0.8,0.1
	l0.7,0.2l0.7,0.2l0.7,0.2l0.6,0.2l0.6,0.2l0.5,0.3l0.5,0.3l0.5,0.3l0.4,0.3l0.3,0.4l0.3,0.4l0.3,0.5l0.3,0.5l0.3,0.5l0.2,0.6
	l0.2,0.6l0.2,0.6l0.2,0.7l0.1,0.7l0.1,0.8l0.1,0.8l0.1,0.8l0.1,0.9l0,0.9l0,1l0,0.9h-7.7v-1.1v-1l-0.1-0.9l-0.1-0.4l-0.1-0.4
	l-0.1-0.4l-0.1-0.3l-0.1-0.3l-0.1-0.3l-0.1-0.3l-0.1-0.2l-0.2-0.2l-0.2-0.2l-0.2-0.2l-0.2-0.1l-0.2-0.2l-0.2-0.1l-0.3-0.1l-0.3-0.1
	l-0.3-0.1l-0.3-0.1l-0.4-0.1l-0.4-0.1l-0.9-0.1l-1-0.1l-1.1-0.1h-1.3h-0.9l-0.8,0l-0.8,0l-0.7,0.1l-0.7,0.1l-0.7,0.1l-0.6,0.1
	l-0.6,0.1l-0.5,0.1l-0.5,0.1l-0.4,0.2l-0.4,0.2l-0.3,0.2l-0.3,0.2l-0.3,0.2L186,22l-0.2,0.3l-0.2,0.3l-0.2,0.4l-0.1,0.4l-0.1,0.5
	l-0.1,0.5l-0.1,0.6l-0.1,0.6l-0.1,0.7l-0.1,0.7l-0.1,0.8l-0.1,0.8l-0.1,1.9l0,2.1v2.8l0.1,2.5l0,1.1l0.1,1.1l0.1,1l0.1,0.9L185,43
	l0.1,0.8l0.1,0.7l0.1,0.6l0.1,0.5l0.1,0.5l0.1,0.4l0.2,0.3l0.2,0.3l0.2,0.2l0.3,0.2l0.3,0.2l0.4,0.2l0.4,0.2l0.5,0.2l0.5,0.2
	l0.6,0.1l0.6,0.1l0.6,0.1l0.7,0.1l0.7,0.1l0.8,0l0.8,0h0.9h1.4l1.2-0.1l1.1-0.1l1-0.1l0.5-0.1l0.4-0.1l0.4-0.1l0.3-0.1l0.3-0.1
	l0.3-0.1l0.2-0.1l0.2-0.1l0.2-0.2l0.2-0.2l0.2-0.2l0.2-0.2l0.2-0.3l0.1-0.3l0.1-0.3l0.1-0.3l0.1-0.3l0.1-0.4l0.1-0.4l0.1-0.4
	l0.1-0.5l0-0.5l0-0.5v-0.5L203.3,40.6L203.3,40.6z M163.4,55.4h7.7V13.8h-7.7V55.4L163.4,55.4z"/>
<path class="st1" d="M127.8,72.5h4.4l-2-5.6h-0.3L127.8,72.5L127.8,72.5z M125.3,76.2l3.7-10.4h1.8l3.7,10.4h-1.1l-1-2.7h-5.1
	l-0.9,2.7H125.3L125.3,76.2z"/>
<polygon class="st1" points="136.4,72.8 137.5,72.8 137.5,73 137.5,73.4 137.5,73.8 137.5,74.1 137.6,74.3 137.7,74.5 137.8,74.7 
	137.9,74.8 138.1,75 138.2,75 138.4,75.1 138.6,75.1 138.8,75.1 139.1,75.2 139.6,75.2 140.2,75.2 140.9,75.2 141.3,75.2 
	141.7,75.2 142,75.1 142.3,75.1 142.5,75 142.6,74.9 142.8,74.8 142.9,74.7 143,74.6 143,74.5 143.1,74.4 143.1,74.2 143.2,74.1 
	143.2,73.8 143.2,73.6 143.2,73.3 143.2,72.8 143.1,72.4 143.1,72.2 143.1,72.1 143,72 143,71.9 142.9,71.8 142.8,71.7 142.7,71.7 
	142.6,71.6 142.4,71.6 142.1,71.5 139,71.3 138.6,71.2 138.3,71.2 138,71.1 137.8,71.1 137.5,70.9 137.3,70.8 137.2,70.7 137,70.6 
	136.9,70.4 136.8,70.2 136.7,70 136.6,69.7 136.6,69.5 136.5,69.2 136.5,68.9 136.5,68.5 136.5,68.1 136.5,67.7 136.6,67.4 
	136.7,67.1 136.8,66.8 136.9,66.6 137,66.4 137.2,66.1 137.4,66 137.6,65.9 137.8,65.8 138.1,65.8 138.4,65.7 138.8,65.7 
	139.4,65.7 140,65.6 140.4,65.6 141.1,65.7 141.7,65.7 142.2,65.7 142.6,65.8 142.9,65.9 143.2,66 143.4,66.1 143.6,66.3 
	143.8,66.5 143.9,66.6 144,66.8 144.1,67 144.1,67.3 144.2,67.6 144.2,67.9 144.2,68.2 144.2,68.4 144.2,68.5 144.2,68.6 
	144.2,68.7 143.1,68.7 143.1,68.4 143.1,68.2 143,67.9 143,67.7 143,67.6 143,67.4 142.9,67.3 142.9,67.2 142.8,67.1 142.7,67 
	142.5,66.9 142.3,66.9 142,66.8 141.7,66.8 141.3,66.7 140.7,66.7 140,66.7 139.6,66.7 139.3,66.7 139,66.8 138.7,66.8 138.5,66.9 
	138.3,66.9 138.2,67 138,67.1 137.9,67.2 137.9,67.3 137.8,67.5 137.7,67.6 137.7,67.8 137.7,68.1 137.7,68.3 137.6,68.5 137.7,69 
	137.7,69.3 137.7,69.4 137.8,69.6 137.8,69.7 137.9,69.8 138,69.9 138.1,69.9 138.2,70 138.3,70 138.6,70.1 138.9,70.2 142.1,70.4 
	142.4,70.5 142.6,70.5 142.9,70.6 143.2,70.7 143.3,70.8 143.5,70.9 143.7,71 143.8,71.1 144,71.3 144.1,71.5 144.1,71.7 
	144.2,71.9 144.3,72.2 144.3,72.5 144.3,72.8 144.3,73.1 144.3,73.6 144.3,74 144.3,74.4 144.2,74.7 144.1,74.9 144,75.1 
	143.9,75.3 143.8,75.5 143.6,75.7 143.3,75.9 143.1,76 142.8,76.1 142.4,76.2 141.9,76.2 141.3,76.3 140.5,76.3 140,76.3 
	139.4,76.3 138.8,76.3 138.4,76.2 138.1,76.1 137.8,76 137.5,75.9 137.3,75.8 137.1,75.6 136.9,75.4 136.8,75.2 136.6,75 
	136.5,74.7 136.5,74.4 136.4,74.1 136.4,73.7 136.4,73.3 136.4,72.8 "/>
<path class="st1" d="M151.4,66.7h-0.6h-0.5l-0.4,0l-0.3,0.1l-0.3,0.1l-0.2,0.1l-0.2,0.1l-0.2,0.1l-0.2,0.1l-0.1,0.1l-0.1,0.2
	l-0.1,0.2l-0.1,0.2l-0.1,0.3l-0.1,0.3l0,0.4v0.5v2.9v0.5l0,0.4l0.1,0.3l0.1,0.3l0.1,0.2l0.1,0.2l0.1,0.2l0.1,0.1l0.2,0.1l0.2,0.1
	l0.2,0.1l0.2,0.1l0.3,0.1l0.3,0.1h0.4l0.5,0h0.6l0.5,0h0.4l0.3-0.1l0.3-0.1l0.2-0.1l0.2-0.1l0.2-0.1l0.2-0.1l0.1-0.1l0.1-0.2
	l0.1-0.2l0.1-0.2l0.1-0.2l0.1-0.3v-0.5l0-0.5v-2.9l0-0.5v-0.4l-0.1-0.3l-0.1-0.3l-0.1-0.2l-0.1-0.2l-0.1-0.2l-0.2-0.1l-0.2-0.1
	l-0.2-0.1l-0.2-0.1l-0.2-0.1l-0.3,0l-0.3-0.1l-0.4,0H151.4L151.4,66.7z M146.9,69.2v-0.5l0-0.4l0.1-0.4l0.1-0.3l0.1-0.3l0.2-0.3
	l0.2-0.2l0.2-0.2l0.2-0.2l0.3-0.2l0.3-0.1l0.3-0.1l0.4-0.1l0.4-0.1l0.5,0l0.5,0h1.3l0.5,0l0.5,0l0.4,0.1l0.4,0.1l0.3,0.1l0.3,0.1
	l0.3,0.2l0.2,0.2l0.2,0.2l0.2,0.3l0.1,0.3l0.1,0.3l0.1,0.4l0.1,0.4l0,0.5l0,0.5v3.5l0,0.5l0,0.4l-0.1,0.4l-0.1,0.3l-0.1,0.3L155,75
	l-0.2,0.2l-0.2,0.2l-0.2,0.2l-0.3,0.2l-0.3,0.1l-0.3,0.1l-0.4,0.1l-0.4,0.1l-0.5,0l-0.5,0h-1.3l-0.5,0l-0.5,0l-0.4-0.1l-0.4-0.1
	l-0.3-0.1l-0.3-0.1l-0.3-0.2l-0.2-0.2l-0.2-0.2l-0.2-0.2l-0.2-0.3l-0.1-0.3l-0.1-0.3l-0.1-0.4l0-0.4v-0.5V69.2L146.9,69.2z"/>
<polygon class="st1" points="157.9,69.2 157.9,68.7 157.9,68.3 158,67.9 158.1,67.5 158.2,67.2 158.3,66.9 158.4,66.6 158.6,66.4 
	158.8,66.2 159,66.1 159.3,66 159.6,65.8 160,65.7 160.4,65.7 160.8,65.7 161.2,65.6 162.4,65.6 162.9,65.7 163.3,65.7 163.7,65.7 
	164,65.8 164.3,65.9 164.6,66 164.8,66.2 165,66.3 165.2,66.5 165.4,66.7 165.5,67 165.6,67.2 165.7,67.5 165.7,67.9 165.8,68.2 
	165.8,68.6 165.8,69.1 164.6,69.1 164.6,68.8 164.6,68.5 164.6,68.2 164.6,68 164.5,67.8 164.5,67.6 164.4,67.4 164.3,67.3 
	164.2,67.1 164,67.1 163.9,67 163.7,66.9 163.5,66.8 163.2,66.8 162.9,66.7 162.7,66.7 162.3,66.7 161.5,66.7 161.1,66.7 
	160.8,66.7 160.4,66.8 160.2,66.8 160,66.9 159.8,67 159.7,67.1 159.5,67.2 159.4,67.4 159.3,67.5 159.2,67.7 159.1,67.9 
	159.1,68.2 159,68.5 159,69 159,69.5 159,72.4 159,73 159,73.4 159.1,73.7 159.1,74 159.2,74.2 159.3,74.4 159.4,74.5 159.5,74.7 
	159.7,74.8 159.8,74.9 160,75 160.2,75.1 160.4,75.1 160.7,75.2 161.1,75.2 161.5,75.2 162.3,75.2 162.7,75.2 163,75.2 163.2,75.1 
	163.5,75.1 163.7,75 163.9,74.9 164.1,74.8 164.2,74.7 164.3,74.6 164.4,74.5 164.5,74.3 164.5,74.1 164.6,73.8 164.6,73.6 
	164.6,73.3 164.6,73 164.6,72.8 164.6,72.7 164.6,72.6 164.6,72.5 165.8,72.5 165.8,73.2 165.8,73.6 165.7,74 165.7,74.3 
	165.6,74.7 165.5,74.9 165.4,75.2 165.2,75.4 165,75.6 164.9,75.8 164.6,75.9 164.4,76 164,76.1 163.7,76.2 163.3,76.2 162.9,76.3 
	162.4,76.3 161.2,76.3 160.8,76.3 160.4,76.2 160,76.2 159.6,76.1 159.3,76 159,75.8 158.8,75.7 158.6,75.5 158.4,75.3 158.3,75 
	158.2,74.7 158.1,74.4 158,74 157.9,73.6 157.9,73.2 157.9,72.7 157.9,69.2 "/>
<polygon class="st1" points="168.3,76.2 168.3,65.8 169.5,65.8 169.5,76.2 168.3,76.2 "/>
<path class="st1" d="M173.9,72.5h4.4l-2-5.6H176L173.9,72.5L173.9,72.5z M171.5,76.2l3.7-10.4h1.8l3.7,10.4h-1.1l-1-2.7h-5.1
	l-0.9,2.7H171.5L171.5,76.2z"/>
<polygon class="st1" points="182.5,69.2 182.5,68.7 182.6,68.3 182.6,67.9 182.7,67.5 182.8,67.2 182.9,66.9 183.1,66.6 183.2,66.4 
	183.5,66.2 183.7,66.1 184,66 184.3,65.8 184.6,65.7 185,65.7 185.4,65.7 185.9,65.6 187,65.6 187.5,65.7 187.9,65.7 188.3,65.7 
	188.6,65.8 189,65.9 189.2,66 189.5,66.2 189.7,66.3 189.8,66.5 190,66.7 190.1,67 190.2,67.2 190.3,67.5 190.4,67.9 190.4,68.2 
	190.4,68.6 190.4,69.1 189.3,69.1 189.3,68.8 189.2,68.5 189.2,68.2 189.2,68 189.1,67.8 189.1,67.6 189,67.4 188.9,67.3 
	188.8,67.1 188.7,67.1 188.5,67 188.3,66.9 188.1,66.8 187.9,66.8 187.6,66.7 187.3,66.7 187,66.7 186.2,66.7 185.8,66.7 
	185.4,66.7 185.1,66.8 184.8,66.8 184.7,66.9 184.5,67 184.3,67.1 184.1,67.2 184,67.4 183.9,67.5 183.8,67.7 183.8,67.9 
	183.7,68.2 183.7,68.5 183.7,69 183.6,69.5 183.6,72.4 183.7,73 183.7,73.4 183.7,73.7 183.8,74 183.8,74.2 183.9,74.4 184,74.5 
	184.1,74.7 184.3,74.8 184.5,74.9 184.7,75 184.8,75.1 185.1,75.1 185.4,75.2 185.7,75.2 186.2,75.2 187,75.2 187.3,75.2 
	187.6,75.2 187.9,75.1 188.1,75.1 188.3,75 188.5,74.9 188.7,74.8 188.8,74.7 188.9,74.6 189,74.5 189.1,74.3 189.2,74.1 
	189.2,73.8 189.2,73.6 189.3,73.3 189.3,73 189.3,72.8 189.3,72.7 189.3,72.6 189.3,72.5 190.4,72.5 190.4,73.2 190.4,73.6 
	190.4,74 190.3,74.3 190.2,74.7 190.1,74.9 190,75.2 189.9,75.4 189.7,75.6 189.5,75.8 189.2,75.9 189,76 188.7,76.1 188.3,76.2 
	187.9,76.2 187.5,76.3 187,76.3 185.9,76.3 185.4,76.3 185,76.2 184.6,76.2 184.3,76.1 184,76 183.7,75.8 183.5,75.7 183.2,75.5 
	183.1,75.3 182.9,75 182.8,74.7 182.7,74.4 182.6,74 182.6,73.6 182.5,73.2 182.5,72.7 182.5,69.2 "/>
<polygon class="st1" points="193,76.2 193,65.8 194.1,65.8 194.1,76.2 193,76.2 "/>
<path class="st1" d="M201.4,66.7h-0.6h-0.5l-0.4,0l-0.3,0.1l-0.3,0.1l-0.2,0.1l-0.2,0.1l-0.2,0.1l-0.2,0.1l-0.2,0.1l-0.1,0.2
	l-0.1,0.2l-0.1,0.2l-0.1,0.3l-0.1,0.3V69l0,0.5v2.9l0,0.5v0.4l0.1,0.3l0.1,0.3l0.1,0.2l0.1,0.2l0.1,0.2l0.2,0.1l0.2,0.1l0.2,0.1
	l0.2,0.1l0.2,0.1l0.3,0.1l0.3,0.1h0.4l0.5,0h0.6l0.5,0h0.4l0.3-0.1l0.3-0.1l0.2-0.1l0.2-0.1l0.2-0.1l0.2-0.1l0.1-0.1l0.1-0.2
	l0.1-0.2l0.1-0.2l0.1-0.2l0.1-0.3l0-0.5v-0.5v-2.9V69l0-0.4l-0.1-0.3l-0.1-0.3l-0.1-0.2l-0.1-0.2l-0.1-0.2l-0.1-0.1l-0.2-0.1
	l-0.2-0.1l-0.2-0.1l-0.2-0.1l-0.3,0l-0.3-0.1l-0.4,0H201.4L201.4,66.7z M196.9,69.2v-0.5l0.1-0.4l0.1-0.4l0.1-0.3l0.1-0.3l0.1-0.3
	l0.2-0.2l0.2-0.2l0.2-0.2l0.3-0.2l0.3-0.1l0.3-0.1l0.4-0.1l0.4-0.1l0.5,0l0.5,0h1.3l0.5,0l0.5,0l0.4,0.1l0.4,0.1l0.3,0.1l0.3,0.1
	l0.3,0.2l0.2,0.2l0.2,0.2l0.2,0.3l0.1,0.3l0.1,0.3l0.1,0.4l0.1,0.4l0,0.5l0,0.5v3.5l0,0.5l0,0.4l-0.1,0.4l-0.1,0.3l-0.1,0.3L205,75
	l-0.2,0.2l-0.2,0.2l-0.2,0.2l-0.2,0.2l-0.3,0.1l-0.3,0.1l-0.4,0.1l-0.4,0.1l-0.5,0l-0.5,0h-1.3l-0.5,0l-0.5,0l-0.4-0.1l-0.4-0.1
	l-0.3-0.1l-0.3-0.1l-0.3-0.2l-0.2-0.2l-0.2-0.2l-0.2-0.2l-0.1-0.3l-0.1-0.3l-0.1-0.3l-0.1-0.4l-0.1-0.4v-0.5V69.2L196.9,69.2z
	 M200.9,64.9h-0.6l1.4-2.4h1L200.9,64.9L200.9,64.9z"/>
<polygon class="st1" points="208.2,76.2 208.2,65.8 209.9,65.8 215.4,75 215.4,65.8 216.5,65.8 216.5,76.2 214.8,76.2 209.3,66.9 
	209.3,76.2 208.2,76.2 "/>
<path class="st1" d="M224.3,76.2V65.8h4.9l0.5,0l0.4,0l0.4,0.1l0.3,0.1l0.3,0.1l0.3,0.1l0.2,0.2l0.2,0.2l0.2,0.2l0.2,0.2l0.1,0.3
	l0.1,0.3l0.1,0.3l0.1,0.4l0.1,0.4v0.5v3.4v0.5l-0.1,0.4l-0.1,0.4l-0.1,0.3l-0.1,0.3l-0.1,0.3l-0.2,0.2l-0.2,0.2l-0.2,0.2l-0.2,0.2
	l-0.3,0.1l-0.3,0.1l-0.4,0.1l-0.4,0.1l-0.4,0l-0.5,0H224.3L224.3,76.2z M225.4,75.1h3.6h0.3l0.3,0L230,75l0.3-0.1l0.2-0.1l0.2-0.1
	l0.2-0.1l0.2-0.1l0.1-0.1l0.1-0.2l0.1-0.2l0.1-0.2l0.1-0.3l0-0.3l0-0.3v-0.3v-3.3V69l0-0.3l0-0.3l-0.1-0.3l-0.1-0.2l-0.1-0.2
	l-0.1-0.2l-0.1-0.1l-0.2-0.1l-0.2-0.1l-0.2-0.1l-0.2-0.1l-0.3-0.1l-0.3,0l-0.3,0H229h-3.6V75.1L225.4,75.1z"/>
<polygon class="st1" points="235.4,76.2 235.4,65.8 242.5,65.8 242.5,66.9 236.5,66.9 236.5,70.3 242.3,70.3 242.3,71.3 236.5,71.3 
	236.5,75.1 242.5,75.1 242.5,76.2 235.4,76.2 "/>
<polygon class="st1" points="249.3,69.2 249.3,68.7 249.3,68.3 249.4,67.9 249.5,67.5 249.6,67.2 249.7,66.9 249.9,66.6 250,66.4 
	250.2,66.2 250.5,66.1 250.8,66 251,65.8 251.4,65.7 251.8,65.7 252.2,65.7 252.6,65.6 253.8,65.6 254.3,65.7 254.7,65.7 
	255.1,65.7 255.4,65.8 255.7,65.9 256,66 256.3,66.2 256.4,66.3 256.6,66.5 256.8,66.7 256.9,67 257,67.2 257.1,67.5 257.2,67.9 
	257.2,68.2 257.2,68.6 257.2,69.1 256,69.1 256,68.8 256,68.5 256,68.2 256,68 255.9,67.8 255.9,67.6 255.8,67.4 255.7,67.3 
	255.6,67.1 255.5,67.1 255.3,67 255.1,66.9 254.9,66.8 254.6,66.8 254.4,66.7 254.1,66.7 253.8,66.7 253,66.7 252.5,66.7 
	252.2,66.7 251.9,66.8 251.6,66.8 251.4,66.9 251.3,67 251.1,67.1 250.9,67.2 250.8,67.4 250.7,67.5 250.6,67.7 250.5,67.9 
	250.5,68.2 250.5,68.5 250.4,69 250.4,69.5 250.4,72.4 250.4,73 250.5,73.4 250.5,73.7 250.5,74 250.6,74.2 250.7,74.4 250.8,74.5 
	250.9,74.7 251.1,74.8 251.3,74.9 251.4,75 251.6,75.1 251.8,75.1 252.2,75.2 252.5,75.2 253,75.2 253.8,75.2 254.1,75.2 
	254.4,75.2 254.7,75.1 254.9,75.1 255.1,75 255.3,74.9 255.5,74.8 255.6,74.7 255.7,74.6 255.8,74.5 255.9,74.3 256,74.1 256,73.8 
	256,73.6 256.1,73.3 256.1,73 256.1,72.8 256.1,72.7 256.1,72.6 256.1,72.5 257.2,72.5 257.2,73.2 257.2,73.6 257.2,74 257.1,74.3 
	257,74.7 256.9,74.9 256.8,75.2 256.7,75.4 256.5,75.6 256.3,75.8 256,75.9 255.7,76 255.5,76.1 255.1,76.2 254.7,76.2 254.3,76.3 
	253.8,76.3 252.6,76.3 252.2,76.3 251.8,76.2 251.4,76.2 251,76.1 250.8,76 250.5,75.8 250.2,75.7 250,75.5 249.9,75.3 249.7,75 
	249.6,74.7 249.5,74.4 249.4,74 249.3,73.6 249.3,73.2 249.3,72.7 249.3,69.2 "/>
<path class="st1" d="M264,66.7h-0.6h-0.5l-0.4,0l-0.3,0.1l-0.3,0.1l-0.2,0.1l-0.2,0.1l-0.2,0.1l-0.2,0.1l-0.1,0.1l-0.1,0.2l-0.1,0.2
	l-0.1,0.2l-0.1,0.3l-0.1,0.3l0,0.4v0.5v2.9v0.5l0,0.4l0.1,0.3l0.1,0.3l0.1,0.2l0.1,0.2l0.1,0.2l0.1,0.1l0.2,0.1l0.2,0.1l0.2,0.1
	l0.2,0.1l0.3,0.1l0.3,0.1h0.4l0.5,0h0.6l0.5,0h0.4l0.3-0.1l0.3-0.1l0.2-0.1l0.2-0.1l0.2-0.1l0.2-0.1l0.1-0.1l0.1-0.2l0.1-0.2
	l0.1-0.2l0.1-0.2l0-0.3l0-0.5l0-0.5v-2.9l0-0.5l0-0.4l0-0.3l-0.1-0.3l-0.1-0.2l-0.1-0.2l-0.1-0.2l-0.1-0.1l-0.2-0.1l-0.2-0.1
	l-0.2-0.1l-0.2-0.1l-0.3,0l-0.3-0.1l-0.4,0H264L264,66.7z M259.4,69.2l0-0.5l0-0.4l0.1-0.4l0.1-0.3l0.1-0.3l0.1-0.3l0.2-0.2l0.2-0.2
	l0.2-0.2l0.3-0.2L261,66l0.3-0.1l0.4-0.1l0.4-0.1l0.5,0l0.5,0h1.2l0.5,0l0.5,0l0.4,0.1l0.4,0.1l0.3,0.1l0.3,0.1l0.3,0.2l0.2,0.2
	l0.2,0.2l0.2,0.3l0.1,0.3l0.1,0.3l0.1,0.4l0.1,0.4l0,0.5l0,0.5v3.5l0,0.5l0,0.4l-0.1,0.4l-0.1,0.3l-0.1,0.3l-0.2,0.3l-0.2,0.2
	l-0.2,0.2l-0.2,0.2l-0.3,0.2l-0.3,0.1l-0.3,0.1l-0.4,0.1l-0.4,0.1l-0.5,0l-0.5,0h-1.2l-0.5,0l-0.5,0l-0.4-0.1l-0.4-0.1L261,76
	l-0.3-0.1l-0.3-0.2l-0.2-0.2l-0.2-0.2l-0.2-0.2l-0.1-0.3l-0.1-0.3l-0.1-0.3l-0.1-0.4l0-0.4l0-0.5V69.2L259.4,69.2z"/>
<polygon class="st1" points="270.8,76.2 270.8,65.8 271.8,65.8 271.8,75.1 277.6,75.1 277.6,76.2 270.8,76.2 "/>
<polygon class="st1" points="279.7,76.2 279.7,65.8 286.8,65.8 286.8,66.9 280.8,66.9 280.8,70.3 286.6,70.3 286.6,71.3 280.8,71.3 
	280.8,75.1 286.8,75.1 286.8,76.2 279.7,76.2 "/>
<polygon class="st1" points="288.9,69.2 288.9,68.7 288.9,68.3 289,67.9 289,67.5 289.2,67.2 289.3,66.9 289.5,66.6 289.6,66.4 
	289.9,66.2 290.1,66.1 290.4,66 290.8,65.8 291.1,65.7 291.5,65.7 292,65.7 292.5,65.6 293.8,65.6 294.2,65.7 294.6,65.7 295,65.7 
	295.4,65.8 295.7,65.9 296,66 296.3,66.1 296.5,66.3 296.7,66.5 296.9,66.7 297.1,66.9 297.2,67.1 297.3,67.4 297.4,67.7 297.4,68 
	297.4,68.3 297.4,68.8 296.2,68.8 296.2,68.6 296.2,68.4 296.2,68.2 296.2,67.9 296.1,67.7 296.1,67.5 295.9,67.4 295.8,67.3 
	295.7,67.1 295.6,67 295.4,67 295.2,66.9 295,66.8 294.7,66.8 294.4,66.7 294.1,66.7 293.7,66.7 292.8,66.7 292.3,66.7 291.9,66.7 
	291.6,66.8 291.3,66.9 291.1,66.9 290.9,67 290.7,67.1 290.6,67.3 290.4,67.4 290.3,67.5 290.2,67.7 290.1,67.9 290.1,68.2 
	290,68.5 290,69 290,69.5 290,72.4 290,73 290,73.4 290.1,73.7 290.1,74 290.2,74.2 290.3,74.4 290.4,74.5 290.6,74.7 290.7,74.8 
	290.9,74.9 291.1,75 291.3,75.1 291.6,75.1 291.9,75.2 292.3,75.2 292.8,75.2 293.7,75.2 294.1,75.2 294.5,75.2 294.8,75.1 
	295.1,75.1 295.3,75 295.4,74.9 295.6,74.8 295.8,74.7 295.9,74.6 296,74.5 296.1,74.3 296.1,74.1 296.2,73.8 296.2,73.5 
	296.2,73.1 296.2,72.7 296.2,72 293.4,72 293.4,71 297.4,71 297.4,72.7 297.4,73.2 297.4,73.6 297.3,74.1 297.2,74.4 297.1,74.7 
	297,75 296.8,75.3 296.6,75.5 296.4,75.7 296.1,75.8 295.8,76 295.5,76.1 295.1,76.2 294.7,76.2 294.2,76.3 293.8,76.3 292.5,76.3 
	292,76.3 291.5,76.2 291.1,76.2 290.8,76.1 290.4,76 290.1,75.8 289.9,75.7 289.6,75.5 289.5,75.3 289.3,75 289.2,74.7 289,74.4 
	289,74.1 288.9,73.6 288.9,73.2 288.9,72.7 288.9,69.2 "/>
<polygon class="st1" points="300.1,76.2 300.1,65.8 301.2,65.8 301.2,76.2 300.1,76.2 "/>
<path class="st1" d="M308.6,66.7H308h-0.5l-0.4,0l-0.3,0.1l-0.3,0.1l-0.2,0.1L306,67l-0.2,0.1l-0.2,0.1l-0.2,0.1l-0.1,0.2l-0.1,0.2
	l-0.1,0.2l-0.1,0.3l-0.1,0.3l0,0.4v0.5v2.9v0.5l0,0.4l0.1,0.3l0.1,0.3l0.1,0.2l0.1,0.2l0.1,0.2l0.2,0.1l0.2,0.1l0.2,0.1l0.2,0.1
	l0.2,0.1l0.3,0.1l0.3,0.1h0.4l0.5,0h0.6l0.5,0h0.4l0.3-0.1l0.3-0.1l0.2-0.1l0.2-0.1l0.2-0.1l0.2-0.1l0.1-0.1l0.1-0.2l0.1-0.2
	l0.1-0.2l0.1-0.2l0.1-0.3l0-0.5v-0.5v-2.9V69l0-0.4l-0.1-0.3l-0.1-0.3l-0.1-0.2l-0.1-0.2l-0.1-0.2l-0.2-0.1l-0.2-0.1l-0.2-0.1
	l-0.2-0.1l-0.2-0.1l-0.3,0l-0.3-0.1l-0.4,0H308.6L308.6,66.7z M304,69.2v-0.5l0.1-0.4l0.1-0.4l0.1-0.3l0.1-0.3l0.1-0.3l0.2-0.2
	l0.2-0.2l0.2-0.2l0.3-0.2l0.3-0.1l0.3-0.1l0.4-0.1l0.4-0.1l0.5,0l0.5,0h1.3l0.5,0l0.5,0l0.4,0.1l0.4,0.1L311,66l0.3,0.1l0.3,0.2
	l0.2,0.2l0.2,0.2l0.2,0.3l0.1,0.3l0.1,0.3l0.1,0.4l0.1,0.4l0,0.5l0,0.5v3.5l0,0.5l0,0.4l-0.1,0.4l-0.1,0.3l-0.1,0.3l-0.1,0.3
	l-0.2,0.2l-0.2,0.2l-0.2,0.2l-0.2,0.2L311,76l-0.3,0.1l-0.4,0.1l-0.4,0.1l-0.5,0l-0.5,0h-1.3l-0.5,0l-0.5,0l-0.4-0.1l-0.4-0.1
	l-0.3-0.1l-0.3-0.1l-0.3-0.2l-0.2-0.2l-0.2-0.2l-0.2-0.2l-0.1-0.3l-0.1-0.3l-0.1-0.3l-0.1-0.4l-0.1-0.4v-0.5V69.2L304,69.2z"/>
<polygon class="st1" points="315,72.8 316.2,72.8 316.2,73 316.2,73.4 316.2,73.8 316.2,74.1 316.3,74.3 316.4,74.5 316.5,74.7 
	316.6,74.8 316.7,75 316.9,75 317.1,75.1 317.3,75.1 317.5,75.1 317.8,75.2 318.3,75.2 318.9,75.2 319.6,75.2 320,75.2 320.4,75.2 
	320.7,75.1 320.9,75.1 321.2,75 321.3,74.9 321.5,74.8 321.6,74.7 321.7,74.6 321.7,74.5 321.8,74.4 321.8,74.2 321.8,74.1 
	321.9,73.8 321.9,73.6 321.9,73.3 321.9,72.8 321.8,72.4 321.8,72.2 321.7,72.1 321.7,72 321.7,71.9 321.6,71.8 321.5,71.7 
	321.4,71.7 321.3,71.6 321.1,71.6 320.8,71.5 317.7,71.3 317.3,71.2 317,71.2 316.7,71.1 316.5,71.1 316.2,70.9 316,70.8 
	315.9,70.7 315.7,70.6 315.6,70.4 315.5,70.2 315.4,70 315.3,69.7 315.3,69.5 315.2,69.2 315.2,68.9 315.2,68.5 315.2,68.1 
	315.2,67.7 315.3,67.4 315.3,67.1 315.4,66.8 315.6,66.6 315.7,66.4 315.9,66.1 316.1,66 316.3,65.9 316.5,65.8 316.8,65.8 
	317.1,65.7 317.5,65.7 318.1,65.7 318.7,65.6 319.1,65.6 319.8,65.7 320.4,65.7 320.9,65.7 321.3,65.8 321.6,65.9 321.8,66 
	322.1,66.1 322.3,66.3 322.5,66.5 322.6,66.6 322.7,66.8 322.8,67 322.8,67.3 322.9,67.6 322.9,67.9 322.9,68.2 322.9,68.4 
	322.9,68.5 322.9,68.6 322.9,68.7 321.8,68.7 321.8,68.4 321.7,68.2 321.7,67.9 321.7,67.7 321.7,67.6 321.7,67.4 321.6,67.3 
	321.6,67.2 321.5,67.1 321.4,67 321.2,66.9 321,66.9 320.7,66.8 320.4,66.8 320,66.7 319.4,66.7 318.7,66.7 318.3,66.7 318,66.7 
	317.7,66.8 317.4,66.8 317.2,66.9 317,66.9 316.9,67 316.7,67.1 316.6,67.2 316.6,67.3 316.5,67.5 316.4,67.6 316.4,67.8 
	316.4,68.1 316.3,68.3 316.3,68.5 316.4,69 316.4,69.3 316.4,69.4 316.5,69.6 316.5,69.7 316.6,69.8 316.7,69.9 316.7,69.9 
	316.9,70 317,70 317.3,70.1 317.6,70.2 320.8,70.4 321.1,70.5 321.3,70.5 321.6,70.6 321.8,70.7 322,70.8 322.2,70.9 322.4,71 
	322.5,71.1 322.6,71.3 322.8,71.5 322.8,71.7 322.9,71.9 323,72.2 323,72.5 323,72.8 323,73.1 323,73.6 323,74 322.9,74.4 
	322.9,74.7 322.8,74.9 322.7,75.1 322.6,75.3 322.5,75.5 322.3,75.7 322,75.9 321.8,76 321.5,76.1 321.1,76.2 320.6,76.2 320,76.3 
	319.2,76.3 318.7,76.3 318.1,76.3 317.5,76.3 317.1,76.2 316.7,76.1 316.5,76 316.2,75.9 316,75.8 315.8,75.6 315.6,75.4 
	315.4,75.2 315.3,75 315.2,74.7 315.1,74.4 315.1,74.1 315,73.7 315,73.3 315,72.8 "/>
<path class="st1" d="M132.4,87.2v-1.5v-0.3l-0.1-0.3l-0.1-0.1l-0.1-0.1l-0.1-0.1l-0.1-0.1l-0.1-0.1l-0.1-0.1l-0.1-0.1l-0.2,0
	l-0.4-0.1l-0.5,0h-3.1v4.1h3.1h0.5l0.4-0.1l0.2-0.1l0.2-0.1l0.1-0.1l0.1-0.1l0.1-0.1l0.1-0.1l0.1-0.1l0.1-0.1l0.1-0.3V87.2
	L132.4,87.2z M126.4,93.6V83.3h4.3h0.4l0.4,0l0.3,0.1l0.3,0.1l0.3,0.1l0.3,0.1l0.2,0.1l0.2,0.1l0.2,0.2l0.1,0.2l0.1,0.2l0.1,0.2
	l0.1,0.3l0.1,0.3l0,0.3v0.3v1.6v0.3l0,0.3l-0.1,0.3l-0.1,0.2l-0.1,0.2l-0.1,0.2l-0.1,0.2l-0.2,0.1l-0.2,0.1l-0.2,0.1l-0.2,0.1
	l-0.3,0.1l-0.3,0.1l-0.3,0.1l-0.4,0h-0.4h-3.1v4H126.4L126.4,93.6z"/>
<path class="st1" d="M140.4,84.4h-3.2v4.1h3.2h0.6l0.5-0.1l0.2,0l0.2-0.1l0.1-0.1l0.1-0.1l0.1-0.1l0.1-0.1l0.1-0.1l0.1-0.1l0.1-0.2
	l0-0.2l0-0.2V87v-1.2v-0.2l0-0.2l0-0.2l-0.1-0.1l-0.1-0.1l-0.1-0.1l-0.1-0.1l-0.1-0.1l-0.1-0.1l-0.2-0.1l-0.2-0.1l-0.2-0.1l-0.5-0.1
	L140.4,84.4L140.4,84.4z M136.1,93.6V83.3h4.5h0.4l0.4,0l0.3,0.1l0.3,0.1l0.3,0.1l0.2,0.1l0.2,0.1l0.2,0.1l0.1,0.2l0.1,0.2l0.1,0.2
	l0.1,0.2l0.1,0.3l0.1,0.3l0,0.3l0,0.3v1.6l0,0.4l-0.1,0.3l-0.1,0.2l-0.1,0.2l-0.1,0.1l-0.1,0.1l-0.1,0.1l-0.1,0.1l-0.1,0.1l-0.1,0.1
	l-0.1,0.1l-0.2,0.1l-0.1,0.1l-0.2,0l0.3,0.1l0.3,0.1l0.1,0.1l0.1,0.1l0.1,0.1l0.1,0.1l0.1,0.1l0.1,0.1l0,0.2l0.1,0.2l0.1,0.4l0,0.5
	v2.5h-1.2v-2.1l0-0.5l-0.1-0.4l-0.1-0.2l-0.1-0.2l-0.1-0.1l-0.1-0.1l-0.1-0.1l-0.1-0.1l-0.1-0.1l-0.2-0.1l-0.2-0.1l-0.2,0h-0.2
	l-0.2,0h-3.6v4H136.1L136.1,93.6z"/>
<polygon class="st1" points="146.5,93.6 146.5,83.3 147.6,83.3 147.6,93.6 146.5,93.6 "/>
<polygon class="st1" points="149.5,83.3 150.7,83.3 153.9,92.6 157.1,83.3 158.3,83.3 154.6,93.6 153.2,93.6 149.5,83.3 "/>
<path class="st1" d="M160.5,90h4.4l-2-5.6h-0.4L160.5,90L160.5,90z M158,93.6l3.7-10.4h1.8l3.7,10.4h-1.1l-1-2.7h-5.1l-0.9,2.7H158
	L158,93.6z"/>
<path class="st1" d="M169.4,93.6V83.3h4.9h0.5l0.4,0.1l0.4,0.1l0.3,0.1l0.3,0.1l0.3,0.1l0.2,0.2l0.2,0.2l0.2,0.2l0.2,0.2l0.1,0.3
	l0.1,0.3l0.1,0.3l0.1,0.4l0,0.4v0.5v3.4v0.5l0,0.4l-0.1,0.4l-0.1,0.4l-0.1,0.3l-0.1,0.3l-0.2,0.2l-0.2,0.2l-0.2,0.2l-0.3,0.2
	l-0.3,0.1l-0.3,0.1l-0.3,0.1l-0.4,0.1l-0.4,0.1h-0.5H169.4L169.4,93.6z M170.5,92.6h3.6l0.4,0l0.3,0l0.3,0l0.3-0.1l0.2-0.1l0.2-0.1
	l0.2-0.1l0.1-0.1l0.1-0.1l0.1-0.2l0.1-0.2l0.1-0.2l0.1-0.3l0-0.3l0-0.3l0-0.3v-3.4l0-0.3l0-0.3l0-0.3l-0.1-0.3l-0.1-0.2l-0.1-0.2
	l-0.1-0.2l-0.1-0.1l-0.1-0.1l-0.2-0.1l-0.2-0.1l-0.2-0.1l-0.2-0.1l-0.3,0l-0.3,0l-0.4,0h-3.6V92.6L170.5,92.6z"/>
<path class="st1" d="M184.7,84.2h-0.6h-0.5l-0.4,0l-0.3,0l-0.3,0.1l-0.2,0.1l-0.2,0.1l-0.2,0.1l-0.2,0.1l-0.1,0.2l-0.1,0.2l-0.1,0.2
	l-0.1,0.2l-0.1,0.3l-0.1,0.3l0,0.4V87v2.9v0.5l0,0.4l0.1,0.3l0.1,0.3l0.1,0.2l0.1,0.2l0.1,0.2l0.1,0.1l0.2,0.1l0.2,0.1l0.2,0.1
	l0.2,0.1l0.3,0.1l0.3,0l0.4,0h0.5h0.6h0.5l0.4,0l0.3,0l0.3-0.1l0.2-0.1l0.2-0.1l0.2-0.1l0.2-0.1l0.1-0.1l0.1-0.2l0.1-0.2l0.1-0.2
	l0.1-0.3l0.1-0.3v-0.4l0-0.5V87l0-0.5V86l-0.1-0.3l-0.1-0.2l-0.1-0.2l-0.1-0.2l-0.1-0.2l-0.2-0.1l-0.2-0.1l-0.2-0.1l-0.2-0.1
	l-0.2-0.1l-0.3-0.1l-0.3,0l-0.4,0H184.7L184.7,84.2z M180.1,86.7v-0.5l0.1-0.5l0.1-0.4l0.1-0.4l0.1-0.3l0.2-0.3l0.2-0.2l0.2-0.2
	l0.2-0.2l0.3-0.2l0.3-0.2l0.3-0.1l0.4-0.1l0.4-0.1l0.5-0.1h0.5h1.3h0.5l0.5,0.1l0.4,0.1l0.4,0.1l0.3,0.1l0.3,0.1l0.3,0.2l0.2,0.2
	l0.2,0.2l0.2,0.3l0.1,0.3l0.1,0.3l0.1,0.4l0.1,0.4l0,0.5l0,0.5v3.5l0,0.5l0,0.5l-0.1,0.4l-0.1,0.4l-0.1,0.3l-0.1,0.3l-0.2,0.3
	l-0.2,0.2l-0.2,0.2l-0.3,0.2l-0.3,0.1l-0.3,0.1l-0.4,0.1l-0.4,0.1l-0.5,0.1h-0.5h-1.3h-0.5l-0.5-0.1l-0.4-0.1l-0.4-0.1l-0.3-0.1
	l-0.3-0.1l-0.3-0.2l-0.2-0.2l-0.2-0.2l-0.2-0.3l-0.2-0.3l-0.1-0.3l-0.1-0.4l-0.1-0.4l-0.1-0.5v-0.5V86.7L180.1,86.7z"/>
<polygon class="st1" points="191.2,90.3 192.3,90.3 192.3,90.4 192.3,90.9 192.3,91.3 192.4,91.6 192.4,91.8 192.5,92 192.6,92.2 
	192.7,92.3 192.9,92.4 193,92.5 193.2,92.6 193.4,92.6 193.6,92.6 194,92.7 194.4,92.7 195,92.7 195.7,92.7 196.1,92.7 196.5,92.7 
	196.8,92.6 197.1,92.6 197.3,92.5 197.5,92.4 197.6,92.3 197.8,92.2 197.8,92.1 197.9,92 197.9,91.9 198,91.7 198,91.6 198,91.3 
	198,91.1 198,90.8 198,90.3 198,89.9 197.9,89.7 197.9,89.6 197.9,89.5 197.8,89.4 197.7,89.3 197.6,89.2 197.6,89.2 197.5,89.1 
	197.2,89.1 196.9,89 193.8,88.8 193.4,88.7 193.1,88.7 192.9,88.6 192.6,88.5 192.4,88.4 192.2,88.3 192,88.2 191.9,88 191.7,87.9 
	191.6,87.7 191.5,87.5 191.5,87.3 191.4,87 191.3,86.7 191.3,86.3 191.3,86 191.3,85.6 191.3,85.2 191.4,84.9 191.5,84.5 
	191.6,84.3 191.7,84.1 191.9,83.8 192.1,83.6 192.2,83.5 192.4,83.4 192.6,83.3 192.9,83.2 193.2,83.2 193.7,83.2 194.2,83.1 
	194.9,83.1 195.2,83.1 195.9,83.1 196.5,83.2 197,83.2 197.4,83.3 197.7,83.4 198,83.5 198.2,83.6 198.5,83.8 198.6,84 198.7,84.1 
	198.8,84.3 198.9,84.5 198.9,84.8 199,85 199,85.4 199,85.7 199,85.9 199,86 199,86.1 199,86.2 197.9,86.2 197.9,85.9 197.9,85.7 
	197.9,85.4 197.9,85.2 197.8,85 197.8,84.9 197.8,84.8 197.7,84.7 197.6,84.6 197.5,84.5 197.3,84.4 197.1,84.4 196.9,84.3 
	196.6,84.3 196.1,84.3 195.5,84.2 194.8,84.2 194.5,84.2 194.1,84.3 193.8,84.3 193.6,84.3 193.3,84.4 193.1,84.4 193,84.5 
	192.9,84.6 192.8,84.7 192.7,84.8 192.6,84.9 192.6,85.1 192.5,85.3 192.5,85.5 192.5,85.8 192.5,86 192.5,86.4 192.5,86.8 
	192.6,86.9 192.6,87.1 192.7,87.2 192.7,87.3 192.8,87.3 192.9,87.4 193,87.5 193.1,87.5 193.4,87.6 193.7,87.7 196.9,87.9 
	197.2,88 197.5,88 197.8,88.1 198,88.2 198.2,88.3 198.4,88.4 198.5,88.5 198.7,88.6 198.8,88.8 198.9,89 199,89.2 199,89.4 
	199.1,89.7 199.1,90 199.2,90.3 199.2,90.6 199.2,91.1 199.1,91.5 199.1,91.9 199,92.2 198.9,92.4 198.9,92.6 198.7,92.8 198.6,93 
	198.4,93.2 198.2,93.4 197.9,93.5 197.6,93.6 197.2,93.7 196.7,93.7 196.1,93.8 195.4,93.8 194.9,93.8 194.2,93.8 193.7,93.7 
	193.2,93.7 192.9,93.6 192.6,93.5 192.4,93.4 192.1,93.3 191.9,93.1 191.7,92.9 191.6,92.7 191.5,92.5 191.3,92.2 191.3,91.9 
	191.2,91.6 191.2,91.2 191.2,90.8 191.2,90.3 "/>
<polygon class="st1" points="206.7,93.6 206.7,83.3 213.8,83.3 213.8,84.4 207.8,84.4 207.8,87.8 213.6,87.8 213.6,88.8 207.8,88.8 
	207.8,92.6 213.8,92.6 213.8,93.6 206.7,93.6 "/>
<polygon class="st1" points="220.9,93.6 220.9,83.3 222.1,83.3 222.1,93.6 220.9,93.6 "/>
<polygon class="st1" points="225.1,93.6 225.1,83.3 226.9,83.3 232.3,92.5 232.3,83.3 233.5,83.3 233.5,93.6 231.7,93.6 226.3,84.4 
	226.3,93.6 225.1,93.6 "/>
<path class="st1" d="M236.6,93.6V83.3h4.9h0.5l0.4,0.1l0.4,0.1l0.3,0.1l0.3,0.1l0.3,0.1l0.2,0.2l0.2,0.2l0.2,0.2l0.1,0.2l0.1,0.3
	l0.1,0.3l0.1,0.3l0.1,0.4l0,0.4l0,0.5v3.4l0,0.5l0,0.4l-0.1,0.4l-0.1,0.4l-0.1,0.3l-0.1,0.3l-0.2,0.2l-0.2,0.2l-0.2,0.2l-0.2,0.2
	l-0.3,0.1l-0.3,0.1l-0.3,0.1l-0.4,0.1l-0.4,0.1h-0.5H236.6L236.6,93.6z M237.7,92.6h3.6l0.3,0l0.3,0l0.3,0l0.2-0.1l0.2-0.1l0.2-0.1
	l0.2-0.1l0.1-0.1l0.1-0.1l0.1-0.2l0.1-0.2l0.1-0.2l0.1-0.3l0.1-0.3v-0.3l0-0.3v-3.4l0-0.3v-0.3l-0.1-0.3l-0.1-0.3l-0.1-0.2l-0.1-0.2
	l-0.1-0.2l-0.1-0.1l-0.1-0.1l-0.2-0.1l-0.2-0.1l-0.2-0.1l-0.3-0.1l-0.3,0l-0.3,0l-0.3,0h-3.6V92.6L237.7,92.6z"/>
<polygon class="st1" points="247.6,93.6 247.6,83.3 254.7,83.3 254.7,84.4 248.8,84.4 248.8,87.8 254.6,87.8 254.6,88.8 248.8,88.8 
	248.8,92.6 254.7,92.6 254.7,93.6 247.6,93.6 "/>
<path class="st1" d="M263.2,87.2v-1.5l0-0.3l-0.1-0.3l-0.1-0.1l-0.1-0.1l-0.1-0.1l-0.1-0.1l-0.1-0.1l-0.1-0.1l-0.2-0.1l-0.2,0
	l-0.4-0.1l-0.5,0h-3.1v4.1h3.1h0.5l0.4-0.1l0.2-0.1l0.1-0.1l0.1-0.1l0.1-0.1l0.1-0.1l0.1-0.1l0.1-0.1l0.1-0.1l0.1-0.3L263.2,87.2
	L263.2,87.2z M257.2,93.6V83.3h4.3h0.4l0.4,0l0.3,0.1l0.3,0.1l0.3,0.1l0.2,0.1l0.2,0.1l0.2,0.1l0.2,0.2l0.1,0.2l0.1,0.2l0.1,0.2
	l0.1,0.3l0,0.3l0.1,0.3v0.3v1.6v0.3l0,0.3l-0.1,0.3l-0.1,0.2l-0.1,0.2l-0.1,0.2l-0.1,0.2l-0.2,0.1l-0.2,0.1l-0.2,0.1l-0.3,0.1
	l-0.3,0.1l-0.3,0.1l-0.3,0.1l-0.4,0h-0.4h-3.2v4H257.2L257.2,93.6z"/>
<polygon class="st1" points="266.9,93.6 266.9,83.3 274,83.3 274,84.4 268,84.4 268,87.8 273.8,87.8 273.8,88.8 268,88.8 268,92.6 
	274,92.6 274,93.6 266.9,93.6 "/>
<polygon class="st1" points="276.5,93.6 276.5,83.3 278.2,83.3 283.6,92.5 283.6,83.3 284.8,83.3 284.8,93.6 283,93.6 277.6,84.4 
	277.6,93.6 276.5,93.6 "/>
<path class="st1" d="M287.9,93.6V83.3h4.9h0.5l0.4,0.1l0.4,0.1l0.4,0.1l0.3,0.1l0.3,0.1l0.2,0.2l0.2,0.2l0.2,0.2l0.2,0.2l0.1,0.3
	l0.1,0.3l0.1,0.3l0.1,0.4l0,0.4l0,0.5v3.4l0,0.5l0,0.4l-0.1,0.4l-0.1,0.4l-0.1,0.3l-0.1,0.3l-0.2,0.2l-0.2,0.2l-0.2,0.2l-0.2,0.2
	l-0.3,0.1l-0.3,0.1l-0.3,0.1l-0.4,0.1l-0.4,0.1h-0.5H287.9L287.9,93.6z M289,92.6h3.6l0.3,0l0.3,0l0.3,0l0.3-0.1l0.2-0.1l0.2-0.1
	l0.2-0.1l0.1-0.1l0.1-0.1l0.1-0.2l0.1-0.2l0.1-0.2l0.1-0.3l0.1-0.3l0-0.3v-0.3v-3.4v-0.3l0-0.3l-0.1-0.3l-0.1-0.3l-0.1-0.2l-0.1-0.2
	l-0.1-0.2l-0.1-0.1l-0.1-0.1l-0.2-0.1l-0.2-0.1l-0.2-0.1l-0.3-0.1l-0.3,0l-0.3,0l-0.3,0H289V92.6L289,92.6z"/>
<polygon class="st1" points="298.9,93.6 298.9,83.3 300.1,83.3 300.1,93.6 298.9,93.6 "/>
<polygon class="st1" points="303.2,93.6 303.2,83.3 310.3,83.3 310.3,84.4 304.3,84.4 304.3,87.8 310.1,87.8 310.1,88.8 304.3,88.8 
	304.3,92.6 310.3,92.6 310.3,93.6 303.2,93.6 "/>
<polygon class="st1" points="312.7,93.6 312.7,83.3 314.4,83.3 319.9,92.5 319.9,83.3 321,83.3 321,93.6 319.3,93.6 313.8,84.4 
	313.8,93.6 312.7,93.6 "/>
<polygon class="st1" points="322.8,84.4 322.8,83.3 330.3,83.3 330.3,84.4 327.1,84.4 327.1,93.6 326,93.6 326,84.4 322.8,84.4 "/>
<polygon class="st1" points="332,93.6 332,83.3 339.1,83.3 339.1,84.4 333.1,84.4 333.1,87.8 338.9,87.8 338.9,88.8 333.1,88.8 
	333.1,92.6 339.1,92.6 339.1,93.6 332,93.6 "/>
<polygon class="st1" points="341.3,90.3 342.4,90.3 342.4,90.4 342.4,90.9 342.4,91.3 342.5,91.6 342.5,91.8 342.6,92 342.7,92.2 
	342.8,92.3 343,92.4 343.1,92.5 343.3,92.6 343.5,92.6 343.7,92.6 344.1,92.7 344.5,92.7 345.1,92.7 345.8,92.7 346.2,92.7 
	346.6,92.7 346.9,92.6 347.2,92.6 347.4,92.5 347.6,92.4 347.8,92.3 347.9,92.2 347.9,92.1 348,92 348,91.9 348.1,91.7 348.1,91.6 
	348.1,91.3 348.1,91.1 348.1,90.8 348.1,90.3 348.1,89.9 348,89.7 348,89.6 348,89.5 347.9,89.4 347.8,89.3 347.8,89.2 347.7,89.2 
	347.6,89.1 347.3,89.1 347,89 343.9,88.8 343.6,88.7 343.3,88.7 343,88.6 342.7,88.5 342.5,88.4 342.3,88.3 342.1,88.2 342,88 
	341.8,87.9 341.7,87.7 341.6,87.5 341.6,87.3 341.5,87 341.5,86.7 341.4,86.3 341.4,86 341.4,85.6 341.5,85.2 341.5,84.9 
	341.6,84.5 341.7,84.3 341.8,84.1 342,83.8 342.2,83.6 342.3,83.5 342.5,83.4 342.8,83.3 343,83.2 343.3,83.2 343.8,83.2 
	344.3,83.1 345,83.1 345.3,83.1 346.1,83.1 346.7,83.2 347.1,83.2 347.5,83.3 347.8,83.4 348.1,83.5 348.3,83.6 348.6,83.8 
	348.7,84 348.8,84.1 348.9,84.3 349,84.5 349.1,84.8 349.1,85 349.1,85.4 349.1,85.7 349.1,85.9 349.1,86 349.1,86.1 349.1,86.2 
	348,86.2 348,85.9 348,85.7 348,85.4 348,85.2 347.9,85 347.9,84.9 347.9,84.8 347.8,84.7 347.7,84.6 347.6,84.5 347.4,84.4 
	347.2,84.4 347,84.3 346.7,84.3 346.2,84.3 345.6,84.2 344.9,84.2 344.6,84.2 344.2,84.3 343.9,84.3 343.7,84.3 343.4,84.4 
	343.3,84.4 343.1,84.5 343,84.6 342.9,84.7 342.8,84.8 342.7,84.9 342.7,85.1 342.6,85.3 342.6,85.5 342.6,85.8 342.6,86 
	342.6,86.4 342.7,86.8 342.7,86.9 342.7,87.1 342.8,87.2 342.8,87.3 342.9,87.3 343,87.4 343.1,87.5 343.2,87.5 343.5,87.6 
	343.8,87.7 347,87.9 347.3,88 347.6,88 347.9,88.1 348.1,88.2 348.3,88.3 348.5,88.4 348.6,88.5 348.8,88.6 348.9,88.8 349,89 
	349.1,89.2 349.1,89.4 349.2,89.7 349.2,90 349.3,90.3 349.3,90.6 349.3,91.1 349.2,91.5 349.2,91.9 349.1,92.2 349.1,92.4 
	349,92.6 348.8,92.8 348.7,93 348.5,93.2 348.3,93.4 348,93.5 347.7,93.6 347.4,93.7 346.9,93.7 346.2,93.8 345.5,93.8 345,93.8 
	344.3,93.8 343.8,93.7 343.3,93.7 343,93.6 342.7,93.5 342.5,93.4 342.2,93.3 342,93.1 341.9,92.9 341.7,92.7 341.6,92.5 
	341.5,92.2 341.4,91.9 341.3,91.6 341.3,91.2 341.3,90.8 341.3,90.3 "/>
<polygon class="st1" points="125.8,106.6 125.8,106.2 125.9,105.9 125.9,105.6 126,105.3 126,105.1 126.2,104.9 126.3,104.7 
	126.4,104.5 126.5,104.4 126.7,104.3 126.9,104.1 127.2,104.1 127.4,104 127.7,104 128,103.9 128.4,103.9 129.3,103.9 129.6,103.9 
	129.9,104 130.2,104 130.5,104.1 130.7,104.1 130.9,104.2 131.1,104.3 131.3,104.4 131.4,104.6 131.5,104.7 131.6,104.9 
	131.7,105.1 131.7,105.3 131.8,105.6 131.8,105.9 131.8,106.2 131.8,106.5 131,106.5 131,106.3 130.9,105.9 130.9,105.6 
	130.8,105.4 130.7,105.3 130.7,105.2 130.6,105.1 130.5,105 130.4,104.9 130.2,104.9 130.1,104.8 129.7,104.8 129.2,104.8 
	128.6,104.8 128.3,104.8 128,104.8 127.8,104.8 127.6,104.8 127.5,104.9 127.3,104.9 127.2,105 127.1,105.1 127,105.2 126.9,105.4 
	126.8,105.5 126.8,105.7 126.7,105.8 126.7,106.1 126.7,106.4 126.7,106.8 126.7,109.1 126.7,109.5 126.7,109.8 126.7,110.1 
	126.8,110.3 126.8,110.4 126.9,110.5 127,110.7 127.1,110.8 127.2,110.9 127.3,110.9 127.5,111 127.6,111.1 127.8,111.1 128,111.1 
	128.3,111.2 128.6,111.2 129.2,111.2 129.7,111.1 130.1,111.1 130.2,111 130.4,111 130.5,110.9 130.6,110.8 130.7,110.7 
	130.8,110.6 130.8,110.5 130.9,110.3 130.9,109.9 131,109.5 131,109.4 131,109.3 131,109.2 131,109.1 131.8,109.1 131.8,109.6 
	131.8,110 131.8,110.3 131.7,110.5 131.7,110.8 131.6,111 131.5,111.2 131.4,111.3 131.3,111.5 131.1,111.6 130.9,111.7 
	130.7,111.8 130.5,111.8 130.2,111.9 129.9,112 129.6,112 129.3,112 128.4,112 128,112 127.7,112 127.4,111.9 127.2,111.8 
	126.9,111.7 126.7,111.6 126.5,111.5 126.4,111.4 126.3,111.2 126.2,111 126,110.8 126,110.6 125.9,110.3 125.9,110 125.8,109.6 
	125.8,109.3 125.8,106.6 "/>
<path class="st1" d="M133.7,111.9V104h0.9v7.9H133.7L133.7,111.9z M134,103.3h-0.5l1.1-1.8h0.8L134,103.3L134,103.3z"/>
<path class="st1" d="M140.2,104.9h-2.4v3.1h2.4h0.5l0.3-0.1l0.1,0l0.1-0.1l0.1-0.1l0.1-0.1l0.1-0.1l0.1-0.1l0.1-0.1l0.1-0.1l0.1-0.2
	v-0.3V106v-0.3l-0.1-0.3l-0.1-0.1l-0.1-0.1l-0.1-0.1l-0.1-0.1l-0.1-0.1l-0.1-0.1l-0.1-0.1l-0.2,0l-0.3-0.1H140.2L140.2,104.9z
	 M137,111.9V104h3.4l0.3,0h0.3l0.3,0l0.2,0.1l0.2,0.1l0.2,0.1l0.2,0.1l0.1,0.1l0.1,0.1l0.1,0.1l0.1,0.2l0.1,0.2l0.1,0.2l0,0.2l0,0.2
	l0,0.2v1.2l0,0.3l-0.1,0.2l-0.1,0.2l-0.1,0.2l-0.1,0.2l-0.2,0.1l-0.2,0.1l-0.2,0.1l0.3,0.1l0.2,0.1l0.2,0.1l0.1,0.2l0.1,0.2l0.1,0.3
	l0.1,0.3l0,0.3v1.9h-0.9v-1.6v-0.4l-0.1-0.3l0-0.1l-0.1-0.1l-0.1-0.1l-0.1-0.1l-0.1-0.1l-0.1-0.1l-0.1,0l-0.1-0.1l-0.3-0.1l-0.3,0
	h-2.7v3.1H137L137,111.9z"/>
<polygon class="st1" points="144.6,106.6 144.6,106.2 144.6,105.9 144.6,105.6 144.7,105.3 144.8,105.1 144.9,104.9 145,104.7 
	145.1,104.5 145.3,104.4 145.5,104.3 145.7,104.1 145.9,104.1 146.2,104 146.4,104 146.8,103.9 147.1,103.9 148,103.9 148.4,103.9 
	148.7,104 148.9,104 149.2,104.1 149.5,104.1 149.7,104.2 149.8,104.3 150,104.4 150.1,104.6 150.2,104.7 150.3,104.9 150.4,105.1 
	150.5,105.3 150.5,105.6 150.5,105.9 150.6,106.2 150.6,106.5 149.7,106.5 149.7,106.3 149.7,105.9 149.6,105.6 149.6,105.4 
	149.5,105.3 149.4,105.2 149.3,105.1 149.2,105 149.1,104.9 149,104.9 148.8,104.8 148.4,104.8 147.9,104.8 147.4,104.8 147,104.8 
	146.8,104.8 146.5,104.8 146.3,104.8 146.2,104.9 146,104.9 145.9,105 145.8,105.1 145.7,105.2 145.7,105.4 145.6,105.5 
	145.5,105.7 145.5,105.8 145.5,106.1 145.4,106.4 145.4,106.8 145.4,109.1 145.4,109.5 145.5,109.8 145.5,110.1 145.5,110.3 
	145.6,110.4 145.7,110.5 145.7,110.7 145.8,110.8 145.9,110.9 146,110.9 146.2,111 146.3,111.1 146.5,111.1 146.7,111.1 147,111.2 
	147.4,111.2 147.9,111.2 148.4,111.1 148.8,111.1 149,111 149.1,111 149.3,110.9 149.3,110.8 149.4,110.7 149.5,110.6 149.6,110.5 
	149.6,110.3 149.7,109.9 149.7,109.5 149.7,109.4 149.7,109.3 149.7,109.2 149.7,109.1 150.6,109.1 150.6,109.6 150.6,110 
	150.5,110.3 150.5,110.5 150.4,110.8 150.4,111 150.2,111.2 150.1,111.3 150,111.5 149.8,111.6 149.7,111.7 149.5,111.8 
	149.2,111.8 149,111.9 148.7,112 148.4,112 148,112 147.1,112 146.8,112 146.4,112 146.2,111.9 145.9,111.8 145.7,111.7 
	145.5,111.6 145.3,111.5 145.1,111.4 145,111.2 144.9,111 144.8,110.8 144.7,110.6 144.6,110.3 144.6,110 144.6,109.6 144.6,109.3 
	144.6,106.6 "/>
<polygon class="st1" points="152.4,104 153.3,104 153.3,109.2 153.3,109.5 153.3,109.8 153.3,110.1 153.4,110.3 153.4,110.4 
	153.5,110.5 153.5,110.6 153.6,110.7 153.7,110.8 153.9,110.9 154,110.9 154.1,111 154.3,111 154.5,111 154.8,111.1 155.1,111.1 
	155.9,111.1 156.2,111.1 156.5,111 156.7,111 156.9,111 157,110.9 157.2,110.9 157.3,110.8 157.4,110.7 157.5,110.6 157.6,110.5 
	157.6,110.4 157.7,110.3 157.7,110.1 157.7,109.8 157.7,109.5 157.7,109.2 157.7,104 158.6,104 158.6,109.3 158.6,109.6 158.5,110 
	158.5,110.3 158.4,110.6 158.4,110.8 158.3,111 158.1,111.2 158,111.4 157.8,111.5 157.7,111.6 157.4,111.7 157.2,111.8 
	156.9,111.9 156.7,112 156.3,112 156,112 155,112 154.7,112 154.4,112 154.1,111.9 153.8,111.8 153.5,111.7 153.3,111.6 
	153.1,111.5 153,111.4 152.9,111.2 152.7,111 152.6,110.8 152.6,110.6 152.5,110.3 152.5,110 152.4,109.6 152.4,109.3 152.4,104 "/>
<polygon class="st1" points="160.8,111.9 160.8,104 161.7,104 161.7,111 166,111 166,111.9 160.8,111.9 "/>
<path class="st1" d="M170.9,104.8h-0.5H170l-0.3,0l-0.3,0l-0.2,0l-0.2,0.1L169,105l-0.1,0.1l-0.1,0.1l-0.1,0.1l-0.1,0.1l-0.1,0.2
	l-0.1,0.2l-0.1,0.2l0,0.3v0.3v0.4v2.2v0.4v0.3l0,0.3l0.1,0.2l0.1,0.2l0.1,0.2l0.1,0.1l0.1,0.1l0.1,0.1l0.1,0.1l0.2,0.1l0.2,0.1
	l0.2,0l0.3,0l0.3,0h0.4h0.5h0.4l0.3,0l0.3,0l0.2,0l0.2-0.1l0.1-0.1l0.2-0.1l0.1-0.1l0.1-0.1l0.1-0.1l0.1-0.1l0.1-0.2l0-0.2l0.1-0.2
	v-0.3v-0.4v-2.3v-0.4l0-0.3l0-0.3l0-0.2l-0.1-0.2l-0.1-0.1l-0.1-0.1l-0.1-0.1l-0.1-0.1l-0.1-0.1l-0.2-0.1l-0.2-0.1l-0.2,0l-0.3-0.1
	h-0.3H170.9L170.9,104.8z M167.4,106.6v-0.3l0-0.3l0.1-0.3l0.1-0.3l0.1-0.2l0.1-0.2l0.1-0.2l0.1-0.2l0.2-0.1l0.2-0.1l0.2-0.1
	l0.2-0.1l0.3-0.1l0.3-0.1l0.3,0h0.4h1h0.4l0.3,0l0.3,0.1l0.3,0.1l0.2,0.1l0.2,0.1l0.2,0.1l0.2,0.1l0.1,0.2l0.1,0.2l0.1,0.2l0.1,0.3
	l0.1,0.3l0.1,0.3l0,0.3l0,0.4v2.7l0,0.3l0,0.3l-0.1,0.3l-0.1,0.3l-0.1,0.2l-0.1,0.2l-0.1,0.2l-0.1,0.2l-0.2,0.1l-0.2,0.1l-0.2,0.1
	l-0.3,0.1l-0.3,0.1l-0.3,0.1l-0.3,0h-0.4h-1h-0.4l-0.3,0l-0.3-0.1l-0.3-0.1l-0.2-0.1l-0.2-0.1l-0.2-0.1l-0.2-0.1l-0.1-0.2l-0.1-0.2
	l-0.1-0.2l-0.1-0.2l-0.1-0.3l-0.1-0.3l0-0.3v-0.3V106.6L167.4,106.6z"/>
<path class="st1" d="M179.5,111.9V104h3.7l0.3,0l0.3,0l0.3,0.1l0.3,0.1l0.2,0.1l0.2,0.1l0.2,0.1l0.2,0.1l0.2,0.2l0.1,0.2l0.1,0.2
	l0.1,0.2l0.1,0.3l0.1,0.3l0,0.3v0.3v2.6v0.3l0,0.3l-0.1,0.3l-0.1,0.3l-0.1,0.2l-0.1,0.2l-0.1,0.2l-0.1,0.2l-0.2,0.1l-0.2,0.1
	l-0.2,0.1l-0.2,0.1l-0.3,0.1l-0.3,0.1l-0.3,0h-0.3H179.5L179.5,111.9z M180.4,111.1h2.7h0.3l0.2,0l0.2,0l0.2-0.1l0.2-0.1l0.2-0.1
	l0.1-0.1l0.1-0.1l0.1-0.1l0.1-0.1l0.1-0.2l0-0.2l0.1-0.2l0-0.2l0-0.2v-0.3v-2.5v-0.3l0-0.2l0-0.2l0-0.2l-0.1-0.2l-0.1-0.2l-0.1-0.1
	l-0.1-0.1l-0.1-0.1l-0.1-0.1l-0.1-0.1l-0.2-0.1l-0.2,0l-0.2,0l-0.2,0h-0.3h-2.7V111.1L180.4,111.1z"/>
<polygon class="st1" points="187.9,111.9 187.9,104 193.3,104 193.3,104.9 188.8,104.9 188.8,107.4 193.2,107.4 193.2,108.2 
	188.8,108.2 188.8,111 193.3,111 193.3,111.9 187.9,111.9 "/>
<polygon class="st1" points="198.5,106.6 198.5,106.2 198.5,105.9 198.5,105.6 198.6,105.3 198.7,105.1 198.8,104.9 198.9,104.7 
	199,104.5 199.2,104.4 199.4,104.3 199.6,104.1 199.8,104.1 200.1,104 200.4,104 200.7,103.9 201,103.9 201.9,103.9 202.2,103.9 
	202.6,104 202.9,104 203.1,104.1 203.4,104.1 203.5,104.2 203.7,104.3 203.9,104.4 204,104.6 204.2,104.7 204.2,104.9 204.3,105.1 
	204.4,105.3 204.4,105.6 204.4,105.9 204.5,106.2 204.5,106.5 203.6,106.5 203.6,106.3 203.6,105.9 203.5,105.6 203.5,105.4 
	203.4,105.3 203.3,105.2 203.2,105.1 203.1,105 203,104.9 202.9,104.9 202.7,104.8 202.3,104.8 201.8,104.8 201.3,104.8 
	200.9,104.8 200.6,104.8 200.4,104.8 200.2,104.8 200.1,104.9 200,104.9 199.8,105 199.7,105.1 199.6,105.2 199.5,105.4 
	199.5,105.5 199.4,105.7 199.4,105.8 199.3,106.1 199.3,106.4 199.3,106.8 199.3,109.1 199.3,109.5 199.3,109.8 199.4,110.1 
	199.4,110.3 199.5,110.4 199.5,110.5 199.6,110.7 199.7,110.8 199.8,110.9 200,110.9 200.1,111 200.2,111.1 200.4,111.1 
	200.6,111.1 200.9,111.2 201.3,111.2 201.8,111.2 202.3,111.1 202.7,111.1 202.9,111 203,111 203.1,110.9 203.3,110.8 203.3,110.7 
	203.4,110.6 203.5,110.5 203.5,110.3 203.6,109.9 203.6,109.5 203.6,109.4 203.6,109.3 203.6,109.2 203.6,109.1 204.5,109.1 
	204.5,109.6 204.4,110 204.4,110.3 204.4,110.5 204.3,110.8 204.2,111 204.2,111.2 204,111.3 203.9,111.5 203.8,111.6 203.6,111.7 
	203.4,111.8 203.1,111.8 202.9,111.9 202.6,112 202.3,112 201.9,112 201,112 200.7,112 200.4,112 200.1,111.9 199.8,111.8 
	199.6,111.7 199.4,111.6 199.2,111.5 199,111.4 198.9,111.2 198.8,111 198.7,110.8 198.6,110.6 198.5,110.3 198.5,110 198.5,109.6 
	198.5,109.3 198.5,106.6 "/>
<path class="st1" d="M207.3,109.1h3.3l-1.5-4.2h-0.3L207.3,109.1L207.3,109.1z M205.4,111.9l2.8-7.9h1.4l2.8,7.9h-0.9l-0.7-2H207
	l-0.7,2H205.4L205.4,111.9z"/>
<polygon class="st1" points="214,111.9 214,104 214.8,104 214.8,111 219.2,111 219.2,111.9 214,111.9 "/>
<polygon class="st1" points="220.8,111.9 220.8,104 221.6,104 221.6,111.9 220.8,111.9 "/>
<path class="st1" d="M224,111.9V104h3.7l0.3,0l0.3,0l0.3,0.1l0.3,0.1l0.2,0.1l0.2,0.1l0.2,0.1l0.2,0.1l0.1,0.2l0.1,0.2l0.1,0.2
	l0.1,0.2l0.1,0.3l0,0.3l0,0.3l0,0.3v2.6l0,0.3l0,0.3l0,0.3l-0.1,0.3l-0.1,0.2l-0.1,0.2l-0.1,0.2l-0.1,0.2l-0.2,0.1l-0.2,0.1
	l-0.2,0.1l-0.2,0.1l-0.3,0.1l-0.3,0.1l-0.3,0h-0.3H224L224,111.9z M224.8,111.1h2.7h0.3l0.2,0l0.2,0l0.2-0.1l0.2-0.1l0.1-0.1
	l0.1-0.1l0.1-0.1l0.1-0.1l0.1-0.1l0.1-0.2l0.1-0.2l0-0.2l0-0.2l0-0.2v-0.3v-2.5v-0.3l0-0.2l0-0.2l0-0.2l-0.1-0.2l-0.1-0.2l-0.1-0.1
	l-0.1-0.1l-0.1-0.1l-0.1-0.1l-0.2-0.1l-0.2-0.1l-0.2,0l-0.2,0l-0.2,0h-0.3h-2.7V111.1L224.8,111.1z"/>
<path class="st1" d="M233.2,109.1h3.3l-1.5-4.2h-0.3L233.2,109.1L233.2,109.1z M231.4,111.9l2.8-7.9h1.4l2.8,7.9h-0.9l-0.7-2H233
	l-0.7,2H231.4L231.4,111.9z"/>
<path class="st1" d="M239.9,111.9V104h3.7l0.3,0l0.3,0l0.3,0.1l0.3,0.1l0.2,0.1l0.2,0.1l0.2,0.1l0.2,0.1l0.2,0.2l0.1,0.2l0.1,0.2
	l0.1,0.2l0.1,0.3l0.1,0.3l0,0.3v0.3v2.6v0.3l0,0.3l-0.1,0.3l-0.1,0.3l-0.1,0.2l-0.1,0.2l-0.1,0.2l-0.1,0.2l-0.2,0.1l-0.2,0.1
	l-0.2,0.1l-0.2,0.1l-0.3,0.1l-0.3,0.1l-0.3,0h-0.3H239.9L239.9,111.9z M240.8,111.1h2.7h0.3l0.2,0l0.2,0l0.2-0.1l0.2-0.1l0.2-0.1
	l0.1-0.1l0.1-0.1l0.1-0.1l0.1-0.1l0.1-0.2l0.1-0.2l0.1-0.2l0-0.2l0-0.2v-0.3v-2.5v-0.3l0-0.2l0-0.2l-0.1-0.2l-0.1-0.2l-0.1-0.2
	l-0.1-0.1l-0.1-0.1l-0.1-0.1l-0.1-0.1l-0.1-0.1l-0.2-0.1l-0.2,0l-0.2,0l-0.2,0h-0.3h-2.7V111.1L240.8,111.1z"/>
<polygon class="st1" points="251.9,111.9 251.9,104 257.3,104 257.3,104.9 252.7,104.9 252.7,107.4 257.1,107.4 257.1,108.2 
	252.7,108.2 252.7,111 257.3,111 257.3,111.9 251.9,111.9 "/>
<path class="st1" d="M259.1,111.9V104h3.7l0.3,0l0.3,0l0.3,0.1l0.3,0.1l0.2,0.1l0.2,0.1l0.2,0.1l0.2,0.1l0.1,0.2l0.1,0.2l0.1,0.2
	l0.1,0.2l0.1,0.3l0,0.3l0,0.3l0,0.3v2.6l0,0.3l0,0.3l0,0.3l-0.1,0.3l-0.1,0.2l-0.1,0.2l-0.1,0.2l-0.1,0.2l-0.2,0.1l-0.2,0.1
	l-0.2,0.1l-0.2,0.1l-0.3,0.1l-0.3,0.1l-0.3,0h-0.3H259.1L259.1,111.9z M260,111.1h2.7h0.3l0.2,0l0.2,0l0.2-0.1l0.2-0.1l0.2-0.1
	l0.1-0.1l0.1-0.1l0.1-0.1l0.1-0.1l0.1-0.2l0.1-0.2l0-0.2l0.1-0.2v-0.2v-0.3v-2.5v-0.3v-0.2l-0.1-0.2l0-0.2l-0.1-0.2l-0.1-0.2
	l-0.1-0.1l-0.1-0.1l-0.1-0.1l-0.1-0.1l-0.2-0.1l-0.2-0.1l-0.2,0l-0.2,0l-0.2,0h-0.3H260V111.1L260,111.1z"/>
<polygon class="st1" points="267.4,104 268.3,104 268.3,109.2 268.3,109.5 268.3,109.8 268.3,110.1 268.4,110.3 268.4,110.4 
	268.5,110.5 268.6,110.6 268.6,110.7 268.7,110.8 268.9,110.9 269,110.9 269.1,111 269.3,111 269.5,111 269.8,111.1 270.1,111.1 
	270.9,111.1 271.2,111.1 271.5,111 271.7,111 271.9,111 272.1,110.9 272.2,110.9 272.3,110.8 272.4,110.7 272.5,110.6 272.6,110.5 
	272.6,110.4 272.7,110.3 272.7,110.1 272.7,109.8 272.8,109.5 272.8,109.2 272.8,104 273.6,104 273.6,109.3 273.6,109.6 273.6,110 
	273.5,110.3 273.5,110.6 273.4,110.8 273.3,111 273.2,111.2 273,111.4 272.9,111.5 272.7,111.6 272.5,111.7 272.2,111.8 272,111.9 
	271.7,112 271.3,112 271,112 270,112 269.7,112 269.4,112 269.1,111.9 268.8,111.8 268.6,111.7 268.4,111.6 268.2,111.5 268,111.4 
	267.9,111.2 267.8,111 267.7,110.8 267.6,110.6 267.5,110.3 267.5,110 267.4,109.6 267.4,109.3 267.4,104 "/>
<polygon class="st1" points="275.6,106.6 275.6,106.2 275.7,105.9 275.7,105.6 275.8,105.3 275.9,105.1 275.9,104.9 276.1,104.7 
	276.2,104.5 276.4,104.4 276.5,104.3 276.7,104.1 277,104.1 277.2,104 277.5,104 277.9,103.9 278.2,103.9 279.1,103.9 279.4,103.9 
	279.7,104 280,104 280.3,104.1 280.5,104.1 280.7,104.2 280.9,104.3 281.1,104.4 281.2,104.6 281.3,104.7 281.4,104.9 281.5,105.1 
	281.5,105.3 281.6,105.6 281.6,105.9 281.6,106.2 281.6,106.5 280.7,106.5 280.7,106.3 280.7,105.9 280.7,105.6 280.6,105.4 
	280.6,105.3 280.5,105.2 280.4,105.1 280.3,105 280.2,104.9 280,104.9 279.9,104.8 279.5,104.8 279,104.8 278.4,104.8 278.1,104.8 
	277.8,104.8 277.6,104.8 277.4,104.8 277.3,104.9 277.1,104.9 277,105 276.9,105.1 276.8,105.2 276.7,105.4 276.6,105.5 
	276.6,105.7 276.6,105.8 276.5,106.1 276.5,106.4 276.5,106.8 276.5,109.1 276.5,109.5 276.5,109.8 276.6,110.1 276.6,110.3 
	276.6,110.4 276.7,110.5 276.8,110.7 276.9,110.8 277,110.9 277.1,110.9 277.3,111 277.4,111.1 277.6,111.1 277.8,111.1 
	278.1,111.2 278.4,111.2 279,111.2 279.5,111.1 279.9,111.1 280.1,111 280.2,111 280.3,110.9 280.4,110.8 280.5,110.7 280.6,110.6 
	280.6,110.5 280.7,110.3 280.7,109.9 280.8,109.5 280.8,109.4 280.8,109.3 280.8,109.2 280.8,109.1 281.6,109.1 281.6,109.6 
	281.6,110 281.6,110.3 281.5,110.5 281.5,110.8 281.4,111 281.3,111.2 281.2,111.3 281.1,111.5 280.9,111.6 280.7,111.7 
	280.5,111.8 280.3,111.8 280,111.9 279.7,112 279.4,112 279.1,112 278.2,112 277.9,112 277.5,112 277.2,111.9 277,111.8 
	276.7,111.7 276.5,111.6 276.4,111.5 276.2,111.4 276.1,111.2 275.9,111 275.9,110.8 275.8,110.6 275.7,110.3 275.7,110 
	275.6,109.6 275.6,109.3 275.6,106.6 "/>
<path class="st1" d="M284.4,109.1h3.3l-1.5-4.2H286L284.4,109.1L284.4,109.1z M282.6,111.9l2.8-7.9h1.4l2.8,7.9h-0.9l-0.7-2h-3.9
	l-0.7,2H282.6L282.6,111.9z"/>
<polygon class="st1" points="289.3,104.9 289.3,104 295,104 295,104.9 292.5,104.9 292.5,111.9 291.7,111.9 291.7,104.9 
	289.3,104.9 "/>
<polygon class="st1" points="296.3,111.9 296.3,104 297.1,104 297.1,111.9 296.3,111.9 "/>
<polygon class="st1" points="298.6,104 299.5,104 301.9,111.1 304.4,104 305.3,104 302.5,111.9 301.4,111.9 298.6,104 "/>
<path class="st1" d="M306.9,109.1h3.3l-1.5-4.2h-0.3L306.9,109.1L306.9,109.1z M305.1,111.9l2.8-7.9h1.4l2.8,7.9h-0.9l-0.7-2h-3.9
	l-0.7,2H305.1L305.1,111.9z"/>
</svg>
